<?xml version="1.0" standalone="no"?>
<!DOCTYPE svg PUBLIC "-//W3C//DTD SVG 20010904//EN"
 "http://www.w3.org/TR/2001/REC-SVG-20010904/DTD/svg10.dtd">
<svg version="1.0" xmlns="http://www.w3.org/2000/svg"
 width="285.000000pt" height="285.000000pt" viewBox="0 0 285.000000 285.000000"
 preserveAspectRatio="xMidYMid meet">
<metadata>
Created by potrace 1.14, written by Peter Selinger 2001-2017
</metadata>
<g transform="translate(0.000000,285.000000) scale(0.100000,-0.100000)"
fill="#000000" stroke="none">
<path d="M2 2803 c-1 -31 2 -43 7 -34 5 8 7 21 3 29 -4 11 -1 13 7 8 7 -5 11
-17 8 -27 -6 -21 1 -23 23 -9 9 6 10 10 3 10 -7 0 -10 11 -8 29 3 25 1 28 -18
24 -18 -4 -19 -3 -7 6 13 9 13 11 -1 11 -13 0 -17 -11 -17 -47z"/>
<path d="M84 2839 c-2 -4 8 -14 21 -23 14 -9 24 -25 23 -34 -3 -18 2 -19 90
-21 23 -1 42 -6 42 -12 0 -5 -4 -7 -10 -4 -5 3 -10 1 -10 -4 0 -6 5 -11 11
-11 6 0 9 -9 6 -19 -4 -15 -1 -18 12 -14 9 3 21 10 27 14 6 5 14 5 19 1 4 -4
1 3 -6 16 -8 12 -15 18 -17 12 -6 -16 -22 -12 -22 5 0 8 9 15 20 15 20 0 27
14 13 23 -5 2 -3 3 3 1 6 -1 16 8 23 22 6 13 15 24 21 24 12 0 9 -22 -5 -32
-5 -4 1 -8 14 -8 20 0 21 2 11 15 -10 12 -9 15 6 15 18 0 19 -7 14 -100 -5
-91 -3 -100 13 -100 23 0 22 -16 -3 -33 -11 -8 -17 -17 -13 -20 3 -4 -2 -7
-11 -7 -12 0 -16 -5 -12 -15 3 -9 -1 -18 -10 -22 -22 -8 -26 1 -15 30 10 25 9
26 -16 16 -17 -6 -30 -6 -36 0 -5 5 -16 7 -25 4 -10 -4 -13 -2 -8 5 4 7 3 12
-2 12 -6 0 -12 -6 -15 -13 -6 -17 -43 -15 -60 2 -10 10 -7 11 14 6 17 -4 33 0
49 13 22 18 23 21 10 51 -11 28 -15 30 -22 16 -8 -13 -12 -14 -26 -3 -15 12
-16 11 -3 -4 12 -16 11 -18 -3 -18 -10 0 -14 -5 -11 -11 5 -7 14 -4 26 7 17
15 19 15 19 1 0 -8 6 -18 13 -21 6 -3 1 -4 -13 -2 -14 3 -36 -1 -50 -9 -21
-11 -26 -11 -35 2 -6 8 -18 11 -29 7 -14 -5 -15 -9 -4 -15 10 -7 10 -9 0 -9
-7 0 -17 11 -22 25 -5 14 -15 25 -21 25 -8 0 -8 -4 -1 -13 7 -9 8 -17 1 -27
-8 -11 -12 -12 -16 -3 -3 9 -10 10 -22 3 -10 -5 -21 -6 -25 -3 -3 3 -6 -9 -6
-28 0 -45 15 -60 47 -48 27 10 47 3 37 -13 -4 -6 -10 -5 -15 3 -6 10 -9 10 -9
2 0 -7 9 -17 20 -23 11 -6 18 -15 14 -21 -3 -6 -17 2 -30 17 -14 14 -28 24
-31 20 -3 -3 -12 -1 -20 5 -10 9 -13 5 -13 -19 0 -27 3 -30 24 -26 14 2 27 0
30 -5 3 -5 0 -9 -7 -8 -43 1 -45 -1 -46 -83 -1 -59 2 -80 11 -80 9 0 10 -3 2
-8 -6 -4 -11 -22 -11 -40 0 -31 1 -32 24 -17 12 9 23 13 23 10 0 -10 -28 -35
-39 -35 -7 0 -10 -23 -9 -60 1 -33 6 -60 12 -60 6 0 5 -5 -2 -12 -13 -13 -17
-88 -4 -88 4 0 14 6 21 13 10 8 12 9 7 0 -8 -15 27 -35 48 -27 25 9 20 -21
-10 -66 -25 -38 -42 -54 -29 -27 4 6 0 3 -9 -8 -8 -11 -20 -25 -26 -32 -5 -7
-10 -52 -9 -100 0 -57 3 -81 9 -68 14 36 32 44 65 29 17 -7 24 -13 17 -14 -7
0 -10 -5 -6 -11 4 -8 1 -8 -12 -1 -11 5 -26 7 -34 3 -19 -8 -25 -32 -6 -25 8
3 17 1 21 -5 4 -7 -5 -11 -24 -11 -29 0 -31 -2 -31 -40 0 -36 3 -40 24 -40 14
0 28 -5 32 -11 5 -8 -3 -10 -25 -7 -20 3 -31 0 -31 -8 0 -17 27 -38 32 -24 1
5 9 1 16 -11 13 -20 12 -21 -17 -17 l-30 4 0 -118 c1 -95 4 -118 15 -118 8 0
17 6 19 13 3 7 21 12 41 13 22 0 33 -4 30 -11 -2 -6 0 -31 4 -56 9 -48 -1 -72
-27 -62 -14 5 -13 8 3 20 16 11 17 17 6 34 -7 11 -10 24 -6 30 10 17 -39 6
-54 -11 -10 -13 -11 -13 -6 3 5 13 2 16 -9 11 -12 -4 -16 -19 -15 -55 1 -45 4
-49 25 -49 13 0 26 -7 29 -15 4 -8 12 -15 18 -15 7 0 12 -10 11 -22 -1 -13 3
-29 9 -37 8 -11 8 -13 -2 -7 -7 4 -15 1 -18 -9 -4 -10 -9 -12 -13 -7 -3 6 -18
13 -33 17 l-27 7 0 -224 0 -224 35 4 c18 2 31 8 28 13 -3 5 0 9 5 9 6 0 11 -4
11 -10 0 -16 22 -12 36 8 13 16 14 16 7 -2 -4 -13 -3 -17 5 -12 7 4 12 3 12
-3 0 -14 -35 -23 -80 -20 -46 4 -74 -15 -50 -32 11 -8 12 -12 3 -16 -7 -2 -13
-11 -13 -19 0 -23 70 -15 80 10 9 20 11 19 14 -6 1 -7 10 -12 21 -10 11 1 43
4 71 6 27 1 56 6 62 10 7 4 12 2 12 -3 0 -6 5 -11 11 -11 5 0 8 4 4 9 -3 5 -1
12 5 16 5 3 10 -2 10 -12 0 -14 2 -15 9 -4 7 11 10 10 18 -4 6 -10 13 -13 17
-7 3 5 -1 12 -9 16 -21 8 -19 19 6 34 20 13 20 12 18 -55 -2 -51 -6 -70 -18
-74 -12 -5 -8 -9 14 -14 17 -4 41 -11 55 -16 24 -8 24 -8 -4 -6 -16 1 -31 -4
-33 -10 -3 -8 4 -13 16 -13 12 0 21 -5 21 -10 0 -6 -8 -10 -17 -8 -10 2 -17
-3 -15 -9 1 -7 -3 -13 -9 -13 -6 0 -8 9 -4 20 4 11 2 20 -4 20 -6 0 -11 -5
-11 -12 0 -6 -3 -8 -6 -5 -4 4 -1 13 6 22 7 9 10 18 7 22 -4 3 -15 -5 -25 -17
-21 -26 -56 -22 -46 5 3 8 1 15 -5 15 -16 0 -13 -21 6 -42 19 -21 10 -36 -11
-19 -13 11 -14 7 -9 -26 3 -21 10 -40 15 -41 14 -6 9 -22 -7 -22 -13 0 -21 32
-16 63 1 5 -2 6 -7 3 -5 -3 -7 7 -4 21 4 23 3 25 -10 13 -16 -15 -20 -40 -6
-40 4 0 8 -7 8 -16 0 -9 -5 -12 -12 -8 -8 5 -9 2 -4 -11 6 -16 4 -16 -10 -4
-15 12 -16 11 -9 -11 11 -35 10 -35 78 -34 45 2 56 0 40 -7 -13 -4 -23 -13
-23 -19 0 -6 -5 -8 -12 -3 -23 14 -50 14 -42 1 5 -8 0 -7 -11 2 -11 9 -16 10
-11 3 5 -9 -1 -13 -18 -13 -16 0 -26 6 -26 15 0 8 -4 15 -10 15 -5 0 -10 8
-10 17 0 14 3 13 16 -5 22 -31 34 -27 21 7 -6 16 -13 29 -16 29 -19 -2 -24 4
-11 12 13 8 12 10 -3 10 -11 0 -15 5 -11 11 3 6 17 9 31 6 17 -3 21 -1 14 6
-15 15 -51 16 -51 1 0 -8 -6 -11 -15 -8 -8 4 -12 11 -9 16 4 6 -2 8 -12 6 -13
-2 -27 7 -42 29 -12 18 -27 33 -32 33 -6 0 -1 -9 10 -20 20 -20 26 -40 12 -40
-4 0 -13 5 -19 11 -9 9 -11 2 -9 -24 2 -24 -1 -34 -9 -31 -8 4 -12 -8 -12 -35
0 -38 12 -52 31 -34 11 11 45 13 51 3 9 -15 25 -12 25 5 0 14 3 13 24 -2 22
-17 25 -50 3 -36 -6 4 -37 8 -69 10 -46 2 -60 -1 -65 -12 -8 -22 2 -28 26 -16
17 10 20 9 14 -5 -4 -12 -3 -15 5 -10 7 4 12 3 12 -2 0 -19 -14 -21 -27 -4
-13 15 -13 15 -7 -8 6 -22 5 -23 -10 -11 -12 10 -16 11 -16 1 0 -7 8 -19 17
-26 17 -13 17 -13 1 -14 -19 0 -24 -32 -12 -64 5 -13 9 -14 20 -5 8 7 14 7 14
2 0 -6 12 -8 26 -5 21 4 24 9 20 28 -7 26 -3 28 29 14 17 -7 17 -9 3 -9 -11
-1 -18 -9 -18 -22 0 -16 3 -19 13 -12 6 6 29 9 49 7 35 -3 37 -2 25 17 -11 17
-13 18 -24 4 -7 -11 -13 -12 -18 -6 -3 6 -1 11 4 11 6 0 11 7 11 15 0 22 37
-3 44 -30 6 -24 55 -33 67 -13 7 10 11 10 21 0 15 -15 58 -16 58 -1 0 7 10 9
24 7 34 -7 48 4 50 39 2 16 6 35 10 41 4 8 0 12 -11 12 -11 0 -14 3 -7 8 15
10 14 42 -2 42 -7 0 -15 4 -18 9 -4 5 3 7 14 4 21 -6 29 20 10 32 -5 3 -10 15
-10 25 0 10 -8 24 -17 30 -14 8 -14 10 -3 9 37 -3 42 1 36 27 -9 33 3 114 16
114 5 0 9 -34 8 -77 -4 -242 0 -333 15 -333 8 0 15 7 15 16 0 10 6 14 14 11
10 -4 12 0 8 16 -3 12 -7 16 -10 9 -13 -40 -20 8 -21 158 -1 94 2 170 6 170
13 0 43 -59 32 -65 -15 -10 -10 -35 8 -42 20 -8 73 -63 73 -75 0 -5 10 -6 22
-3 20 5 23 2 23 -25 0 -34 -2 -35 -30 -13 -16 13 -17 15 -2 10 9 -4 17 -3 17
1 0 5 -16 14 -35 21 -19 7 -33 17 -30 22 4 5 -3 9 -14 9 -24 0 -36 16 -19 23
8 3 5 6 -5 6 -16 1 -18 -4 -12 -31 4 -18 11 -34 16 -36 5 -2 9 -10 9 -18 0 -9
-4 -12 -10 -9 -5 3 -10 1 -10 -4 0 -6 5 -11 10 -11 6 0 10 -4 10 -10 0 -5 -7
-10 -16 -10 -8 0 -12 -4 -9 -10 3 -5 0 -10 -7 -10 -7 -1 0 -8 16 -16 19 -11
25 -19 17 -23 -7 -5 -2 -12 16 -21 15 -7 31 -13 36 -12 4 1 7 -6 7 -15 0 -14
2 -15 9 -4 6 9 11 10 15 2 4 -6 43 -9 101 -8 l94 2 7 40 c4 22 7 44 6 48 -2 5
2 6 8 2 5 -3 19 -1 31 5 11 7 32 14 46 16 23 4 24 4 9 -12 -9 -9 -23 -13 -31
-10 -8 3 -15 1 -15 -4 0 -6 -10 -10 -22 -11 -22 0 -22 -1 -3 -9 28 -12 37 -12
30 0 -4 7 3 9 19 6 15 -3 24 -1 21 5 -4 5 3 9 13 9 11 0 22 -7 26 -15 3 -8 1
-15 -4 -15 -6 0 -10 -5 -10 -11 0 -6 9 -8 23 -4 15 4 18 3 8 -3 -9 -7 -10 -12
-2 -16 6 -4 9 -10 7 -14 -2 -4 30 -8 71 -9 61 -2 73 0 64 11 -9 10 -6 15 10
19 17 5 20 2 16 -14 -8 -28 18 -24 31 6 7 16 20 25 34 25 13 0 18 3 12 8 -6 4
-14 19 -17 33 -8 30 7 41 42 32 22 -6 24 -11 25 -77 1 -22 7 -41 14 -44 9 -3
12 14 12 62 l0 66 103 -4 c56 -2 107 -5 112 -6 6 -1 12 -2 15 -1 15 5 519 3
527 -2 6 -4 19 0 29 8 17 13 18 14 2 15 -18 0 -26 20 -9 20 14 0 6 91 -10 101
-11 7 -9 9 9 9 12 0 22 5 22 11 0 6 -33 10 -92 9 -51 -1 -231 -1 -400 -1
l-308 1 0 60 0 60 231 0 c181 0 229 -3 223 -12 -6 -10 -4 -10 7 -2 9 7 77 12
182 13 l167 2 1 -123 c1 -68 2 -160 2 -205 1 -64 4 -83 15 -83 11 0 13 35 12
193 -1 105 -2 198 -1 205 1 9 45 12 186 12 l185 0 0 1015 0 1015 -188 0 -187
0 -1 201 c-2 183 -5 221 -19 207 -3 -2 -5 -95 -5 -206 l-1 -202 -85 0 c-77 0
-86 2 -91 20 -3 11 -9 18 -13 15 -5 -3 -11 -1 -15 5 -3 5 -14 10 -23 10 -12 0
-10 -4 7 -13 14 -6 26 -17 28 -24 3 -9 -39 -12 -181 -11 -159 2 -186 4 -189
17 -4 13 -5 13 -6 -1 -1 -23 -69 -26 -77 -3 -4 8 -13 15 -21 15 -10 0 -13 6
-9 16 3 8 2 12 -4 9 -15 -9 -12 -26 6 -40 14 -10 9 -12 -30 -11 -25 1 -46 5
-46 9 0 4 -9 3 -19 -3 -11 -5 -29 -10 -40 -10 -22 0 -24 19 -25 178 0 62 -14
37 -18 -33 -2 -40 -8 -59 -16 -58 -7 2 -12 -2 -12 -9 0 -15 -34 21 -43 46 -6
14 -4 17 9 12 25 -10 47 20 38 52 -5 20 -8 23 -11 10 -9 -36 -33 -11 -33 33 0
12 -7 19 -19 19 -26 0 -33 13 -36 67 -3 42 -15 75 -15 39 0 -9 -9 -27 -20 -39
l-21 -21 21 -8 c11 -4 20 -14 20 -22 0 -9 9 -20 20 -26 27 -15 25 -36 -7 -66
-26 -24 -28 -24 -41 -7 -9 12 -12 34 -8 65 5 45 4 47 -22 50 -19 2 -30 11 -37
32 -7 21 -7 30 1 33 6 2 9 16 6 31 -3 25 -8 28 -42 29 -37 1 -58 -16 -45 -36
2 -4 -1 -8 -8 -8 -7 0 -31 -12 -54 -26 -48 -31 -63 -33 -63 -12 0 8 6 15 13
15 8 0 8 3 -2 9 -11 7 -10 10 5 14 15 4 16 5 2 6 -9 0 -18 9 -20 18 -3 15 -16
18 -91 19 -87 1 -105 -6 -66 -26 20 -11 20 -12 2 -26 -16 -13 -16 -13 0 -8 13
5 16 2 11 -10 -4 -11 0 -16 14 -16 11 0 23 -6 26 -12 3 -7 3 -1 0 15 -5 23 -3
27 15 27 12 0 21 -5 21 -11 0 -5 -4 -7 -10 -4 -5 3 -10 1 -10 -4 0 -6 7 -11
16 -11 9 0 14 -6 11 -12 -2 -7 3 -18 12 -25 11 -9 12 -12 3 -13 -7 0 -11 -4
-7 -9 3 -6 -5 -18 -18 -28 -22 -16 -23 -20 -10 -39 13 -20 12 -24 -13 -43 -30
-24 -37 -22 -57 19 -17 33 -13 40 20 40 20 0 22 3 13 19 -5 11 -8 33 -6 49 3
29 3 29 -32 20 -40 -11 -55 -1 -57 37 -1 26 10 34 18 13 4 -10 8 -9 16 2 8 11
7 18 -4 26 -8 6 -11 15 -7 19 4 4 1 6 -6 4 -8 -3 -13 -8 -13 -12 1 -4 -8 -17
-19 -29 -18 -19 -18 -24 -6 -37 13 -13 13 -18 -2 -43 -17 -30 -27 -34 -37 -18
-4 6 -15 8 -26 5 -15 -5 -18 -2 -16 12 1 10 7 24 12 32 13 22 12 98 -2 98 -18
0 -25 -27 -12 -43 8 -10 8 -14 1 -14 -6 0 -9 -6 -6 -14 3 -8 -5 -21 -18 -30
-21 -15 -24 -15 -35 1 -10 13 -10 18 0 25 9 6 9 10 0 16 -6 4 -14 19 -18 33
-6 24 -9 25 -53 18 -28 -4 -52 -3 -59 3 -10 8 -13 6 -13 -5 0 -9 8 -21 18 -26
9 -6 12 -11 5 -11 -7 0 -22 10 -35 23 -23 23 -98 35 -98 15 0 -5 5 -6 10 -3 6
3 10 2 10 -3 0 -18 -40 -21 -49 -4 -9 17 -58 25 -67 11z m596 -9 c0 -5 -2 -10
-4 -10 -3 0 -8 5 -11 10 -3 6 -1 10 4 10 6 0 11 -4 11 -10z m44 -1 c9 8 16 9
16 3 0 -12 -29 -24 -41 -16 -5 3 -9 11 -9 17 0 8 4 7 9 -2 8 -12 12 -12 25 -2z
m256 -9 c0 -12 -10 -25 -25 -32 -14 -6 -24 -18 -23 -26 2 -8 -7 -21 -19 -29
-21 -14 -23 -14 -29 2 -10 25 8 49 40 53 18 2 26 9 26 23 0 11 5 17 10 14 6
-3 10 -1 10 4 0 6 2 11 5 11 3 0 5 -9 5 -20z m-745 -29 c-23 -15 -38 -18 -65
-11 -35 8 -27 12 32 14 15 1 30 5 34 9 4 4 12 7 18 7 6 0 -2 -9 -19 -19z m755
-61 c12 0 18 -4 15 -10 -3 -5 -1 -10 6 -10 20 0 -4 -20 -29 -25 -17 -3 -22 1
-22 16 0 11 -7 19 -17 20 -11 0 -13 3 -5 6 6 2 12 14 13 26 0 22 0 22 9 0 6
-14 18 -23 30 -23z m-110 -20 c21 0 30 -19 30 -64 0 -41 -7 -48 -34 -34 -19
10 -20 10 -7 -5 8 -10 9 -17 3 -17 -6 0 -12 -8 -14 -17 -3 -14 -7 -13 -30 10
-15 15 -31 35 -37 44 -5 10 -13 14 -17 10 -5 -5 -2 -12 6 -17 19 -12 -2 -35
-24 -27 -20 8 -9 45 15 52 10 4 19 14 19 23 0 9 6 24 13 33 14 18 50 29 55 17
2 -4 12 -8 22 -8z m-435 -13 c-8 -13 -12 -27 -8 -30 3 -4 1 -7 -5 -7 -19 0
-14 38 6 49 24 14 24 14 7 -12z m219 4 c10 -15 -5 -40 -27 -47 -12 -4 -27 -14
-33 -22 -10 -14 -12 -13 -18 6 -10 32 2 60 27 65 39 7 46 7 51 -2z m-134 -10
c0 -13 -28 -22 -35 -11 -3 4 1 11 7 13 20 8 28 8 28 -2z m530 -11 c0 -21 -15
-27 -25 -10 -7 12 2 30 16 30 5 0 9 -9 9 -20z m-28 -37 c10 -20 16 -39 14 -41
-6 -6 -46 17 -45 26 1 4 1 14 0 22 -1 13 -2 13 -11 0 -8 -13 -10 -13 -10 2 0
14 12 25 30 27 3 0 13 -16 22 -36z m-502 7 c0 -5 -5 -10 -10 -10 -7 0 -9 -16
-7 -40 5 -47 -1 -49 -27 -13 -18 24 -18 26 -2 20 10 -4 15 -3 11 3 -3 5 0 18
7 30 14 21 28 27 28 10z m-96 -6 c9 -3 13 -10 11 -15 -3 -4 4 -18 16 -30 l22
-22 -21 -8 c-25 -10 -28 -22 -8 -38 10 -8 16 -9 21 -1 3 5 1 10 -4 10 -6 0
-11 4 -11 9 0 5 20 8 45 6 26 -1 45 2 45 9 0 6 4 6 11 -1 21 -21 1 -63 -36
-79 -38 -15 -58 -18 -37 -5 10 6 10 10 -2 20 -11 10 -18 8 -35 -10 -16 -17
-24 -20 -32 -12 -6 6 -18 9 -25 6 -24 -9 -15 14 12 36 15 12 21 21 15 21 -20
0 -24 30 -6 50 13 14 14 23 5 39 -12 23 -10 24 14 15z m-224 -44 c0 -5 -5 -10
-11 -10 -5 0 -7 5 -4 10 3 6 8 10 11 10 2 0 4 -4 4 -10z m407 -15 c0 -8 -4
-15 -9 -15 -10 0 -11 14 -1 23 9 10 10 9 10 -8z m-478 -32 c-1 -33 -2 -35 -8
-13 -4 14 -6 31 -3 38 8 22 12 13 11 -25z m637 2 c19 -20 34 -39 34 -43 0 -10
-53 -62 -63 -62 -3 0 -3 7 0 17 4 11 3 14 -5 9 -7 -4 -12 -1 -12 8 0 21 10 20
26 -1 12 -17 13 -16 14 5 0 12 -7 25 -16 29 -8 3 -13 12 -10 19 4 10 -3 14
-22 13 -17 -1 -20 -3 -9 -6 29 -8 19 -23 -15 -23 -31 -1 -32 -1 -14 -15 16
-12 17 -15 4 -15 -35 0 -25 63 11 75 12 3 21 11 21 16 0 19 23 8 56 -26z
m-706 9 c0 -2 -9 -4 -20 -4 -11 0 -20 4 -20 9 0 5 9 7 20 4 11 -3 20 -7 20 -9z
m901 -1 c8 -10 16 -22 17 -28 1 -5 6 -10 11 -10 5 0 13 -3 17 -7 3 -4 -3 -6
-15 -3 -25 5 -28 -10 -3 -25 15 -10 15 -10 -3 -8 -11 2 -23 7 -26 11 -3 5 -9
3 -11 -5 -3 -8 4 -18 18 -25 13 -6 22 -7 18 -2 -3 5 0 9 6 9 7 0 10 -6 8 -12
-3 -7 -25 -14 -51 -16 l-46 -3 4 36 c2 19 -1 38 -6 41 -19 11 -9 25 10 14 26
-13 54 -13 46 1 -4 6 -12 8 -19 6 -6 -3 -18 2 -25 11 -13 13 -11 14 12 10 27
-5 38 6 15 15 -7 3 -8 6 -3 6 6 1 17 -7 26 -16z m149 -45 c0 -5 -9 -4 -20 2
-12 6 -17 16 -13 27 6 14 8 14 20 -3 7 -10 13 -22 13 -26z m52 15 c7 -14 23
-30 36 -34 15 -6 21 -5 17 1 -3 6 -1 10 4 10 6 0 11 -16 11 -36 0 -33 -2 -35
-17 -23 -11 10 -14 10 -9 2 4 -7 3 -13 -1 -13 -5 0 -15 6 -22 13 -11 10 -13
10 -7 0 5 -9 -2 -13 -26 -13 -31 0 -34 3 -36 31 -2 28 0 30 13 19 10 -8 15 -9
15 -1 0 6 7 11 15 11 13 0 13 3 3 20 -7 11 -18 18 -25 16 -7 -3 -15 -1 -18 4
-5 7 9 17 27 19 4 1 13 -11 20 -26z m-962 -5 c0 -4 -6 -8 -14 -8 -8 0 -17 4
-20 8 -2 4 4 8 15 8 10 0 19 -4 19 -8z m865 -8 c3 -5 1 -10 -4 -10 -6 0 -11 5
-11 10 0 6 2 10 4 10 3 0 8 -4 11 -10z m-170 -10 c3 -5 -3 -10 -14 -10 -12 0
-21 5 -21 10 0 6 6 10 14 10 8 0 18 -4 21 -10z m-55 -24 c-6 -6 -10 -18 -10
-28 0 -14 -8 -18 -37 -17 -32 1 -34 2 -13 8 14 3 25 13 24 21 -1 22 3 26 25
26 14 0 17 -4 11 -10z m-631 -31 c-7 -6 -13 -5 -19 5 -12 20 -2 32 15 17 8 -8
10 -16 4 -22z m894 14 c3 -11 1 -21 -3 -24 -12 -8 -90 -3 -90 6 0 14 34 19 42
7 6 -9 7 -6 3 8 -5 18 -1 22 19 22 15 0 26 -7 29 -19z m-983 -14 c-7 -8 -17
-12 -23 -8 -6 4 -3 9 9 14 27 11 28 11 14 -6z m205 3 c5 4 5 2 1 -5 -8 -14
-36 -6 -36 9 0 7 5 6 13 -1 8 -6 18 -7 22 -3z m557 5 c-6 -2 -9 -10 -5 -16 4
-7 -1 -6 -10 2 -22 18 -21 21 6 20 12 0 16 -3 9 -6z m-357 -13 c4 -6 -6 -10
-22 -9 -25 0 -26 1 -8 9 11 5 21 9 22 9 1 1 5 -3 8 -9z m-431 -36 c3 -8 2 -12
-4 -9 -6 3 -10 10 -10 16 0 14 7 11 14 -7z m136 12 c0 -3 -4 -8 -10 -11 -5 -3
-10 -1 -10 4 0 6 5 11 10 11 6 0 10 -2 10 -4z m110 -11 c0 -9 -7 -15 -16 -13
-10 2 -19 -3 -22 -11 -3 -9 1 -11 17 -6 21 6 22 4 20 -44 -2 -42 -5 -48 -18
-41 -21 11 -44 -13 -28 -29 8 -8 7 -11 -5 -11 -9 0 -19 6 -21 13 -4 8 -8 9
-14 1 -10 -14 -74 -15 -90 -1 -9 6 -13 6 -13 -2 0 -6 -7 -11 -15 -11 -21 0
-19 7 10 34 23 21 23 24 8 46 -12 18 -13 22 -2 18 8 -2 18 -14 24 -26 5 -12
14 -23 20 -25 5 -2 2 -3 -7 -2 -10 2 -20 0 -23 -5 -7 -11 78 -19 90 -9 5 5 -1
9 -15 10 -16 0 -19 3 -10 6 8 3 23 14 32 24 17 17 17 18 0 18 -36 0 -78 9
-110 22 -32 14 -31 14 47 14 44 0 80 4 78 8 -2 8 40 36 56 37 4 0 7 -7 7 -15z
m482 -5 c111 -15 122 -16 138 -23 49 -21 224 -58 275 -59 67 -1 104 14 149 61
l30 31 35 -34 c20 -19 49 -40 64 -45 53 -20 147 -12 282 24 169 45 324 63 402
47 151 -32 250 -161 269 -353 9 -93 -9 -183 -58 -285 -37 -77 -42 -97 -46
-173 -4 -80 -2 -89 22 -124 14 -21 26 -40 26 -42 0 -2 -12 -21 -26 -42 -24
-35 -26 -44 -22 -123 4 -74 9 -97 46 -175 55 -119 70 -209 53 -318 -22 -141
-88 -244 -186 -293 -102 -49 -230 -44 -485 23 -205 53 -274 48 -344 -26 l-29
-30 -29 30 c-75 74 -141 79 -348 26 -255 -67 -383 -72 -485 -23 -96 48 -155
136 -183 277 -22 114 -7 216 50 335 37 77 42 97 46 173 3 78 1 90 -22 126
l-24 39 25 43 c22 39 25 52 22 126 -4 72 -9 93 -45 168 -49 101 -69 203 -60
291 20 177 100 295 229 339 59 21 123 23 229 9z m-744 -31 c12 1 22 -2 22 -7
0 -6 -20 -12 -45 -14 -35 -2 -42 -1 -30 8 8 6 11 15 7 19 -4 5 0 4 8 -1 8 -4
25 -7 38 -5z m142 -45 c0 -8 -4 -12 -10 -9 -5 3 -10 10 -10 16 0 5 5 9 10 9 6
0 10 -7 10 -16z m-175 -4 c3 -5 -3 -10 -15 -10 -12 0 -18 5 -15 10 3 6 10 10
15 10 5 0 12 -4 15 -10z m49 -6 c10 -25 1 -27 -19 -4 -15 17 -16 20 -3 20 9 0
19 -7 22 -16z m156 6 c0 -5 -5 -10 -11 -10 -5 0 -7 5 -4 10 3 6 8 10 11 10 2
0 4 -4 4 -10z m-180 -30 c0 -5 -4 -10 -10 -10 -5 0 -10 5 -10 10 0 6 5 10 10
10 6 0 10 -4 10 -10z m256 -24 c20 -20 18 -50 -2 -42 -9 3 -19 6 -22 6 -4 0
-1 4 7 9 12 8 12 12 2 25 -17 20 -5 21 15 2z m-226 0 c0 -2 -7 -7 -16 -10 -8
-3 -12 -2 -9 4 6 10 25 14 25 6z m85 -45 c5 -14 7 -14 15 -1 8 12 13 13 30 2
17 -10 20 -10 21 5 0 11 3 13 6 6 2 -7 11 -13 19 -13 8 0 14 -4 14 -10 0 -5
-6 -7 -14 -4 -8 3 -17 1 -20 -5 -4 -6 -27 -9 -56 -6 -30 3 -51 1 -56 -6 -4 -8
0 -9 15 -4 13 4 21 2 21 -5 0 -6 4 -8 10 -5 6 3 7 -1 4 -10 -5 -11 -10 -13
-19 -5 -7 6 -20 8 -29 4 -15 -6 -21 5 -17 30 1 4 -9 6 -23 2 -14 -3 -27 -2
-30 3 -7 11 48 23 69 15 8 -4 15 -2 15 4 0 6 -6 12 -12 15 -7 3 -3 4 9 4 12
-1 25 -8 28 -16z m-78 -58 c0 -7 -4 -13 -9 -13 -4 0 -8 -7 -8 -15 0 -8 5 -15
10 -15 6 0 10 -5 10 -11 0 -6 -6 -9 -14 -6 -17 7 -15 -18 2 -35 19 -19 14 -29
-8 -16 -11 7 -20 21 -20 31 0 12 -5 17 -14 14 -8 -3 -17 1 -20 9 -3 9 -11 12
-17 8 -8 -4 -9 -3 -5 4 4 7 18 12 32 12 13 0 24 5 24 10 0 6 -4 10 -8 10 -5 0
-16 6 -26 13 -15 11 -12 13 27 13 29 0 44 -5 44 -13z m53 -28 c0 -8 9 -15 20
-15 11 0 20 -7 20 -15 0 -21 -14 -19 -35 5 -11 13 -25 18 -37 14 -20 -6 -25
11 -5 19 23 10 37 7 37 -8z m177 -42 c-3 -58 -58 -89 -70 -41 -8 29 16 65 45
71 13 2 24 5 25 6 2 0 2 -16 0 -36z m-177 -8 c0 -3 -9 -1 -20 5 -11 6 -18 15
-15 21 6 9 35 -12 35 -26z m80 0 c13 -16 6 -35 -15 -35 -7 0 -16 -6 -18 -12
-4 -10 -8 -10 -15 1 -7 10 -6 21 5 38 18 27 26 28 43 8z m-195 -13 c4 3 16 -3
27 -14 11 -11 18 -21 16 -23 -8 -8 -48 8 -48 19 0 6 -4 6 -9 -3 -6 -9 -8 -5
-8 14 0 18 2 23 8 14 4 -7 11 -11 14 -7z m8 -59 c-7 -2 -21 -2 -30 0 -10 3 -5
5 12 5 17 0 24 -2 18 -5z m188 -12 c-7 -5 -10 -14 -7 -20 4 -6 0 -11 -8 -11
-9 0 -16 4 -16 8 0 12 22 32 35 32 5 0 4 -4 -4 -9z m65 -3 c9 -9 -14 -46 -36
-58 -13 -7 -21 -7 -25 1 -4 6 3 13 15 16 17 4 20 11 16 28 -4 17 -2 23 9 21 8
-1 17 -5 21 -8z m-213 -13 c-3 -9 -8 -14 -10 -11 -3 3 -2 9 2 15 9 16 15 13 8
-4z m245 -15 c-2 -26 -4 -28 -17 -16 -12 12 -12 18 -1 30 18 22 21 20 18 -14z
m-1 -46 c-3 -3 -12 -4 -19 -1 -8 3 -5 6 6 6 11 1 17 -2 13 -5z m-137 -47 c0
-2 -20 -3 -44 -2 -47 2 -56 -17 -13 -29 18 -5 20 -8 7 -16 -19 -13 -70 -13
-70 0 0 5 7 7 16 3 14 -5 14 -3 3 15 -17 27 1 50 44 54 27 3 57 -10 57 -25z
m136 -42 c0 -30 -3 -52 -8 -49 -4 3 -8 14 -8 26 0 14 -5 18 -15 14 -21 -8 -45
3 -45 20 0 16 12 18 26 4 7 -7 17 -5 30 5 14 11 15 15 4 14 -27 -3 -40 1 -40
11 0 6 13 10 28 10 27 0 28 -2 28 -55z m-128 -42 c-21 -29 -47 -28 -45 2 3 33
50 61 55 33 2 -10 -3 -26 -10 -35z m-174 16 c-31 -12 -40 -9 -20 6 10 8 24 11
29 8 6 -4 2 -10 -9 -14z m103 -21 c-3 -8 -6 -5 -6 6 -1 11 2 17 5 13 3 -3 4
-12 1 -19z m-14 -12 c3 -7 24 -16 46 -20 31 -5 41 -11 41 -24 0 -31 -12 -33
-37 -5 -20 21 -27 23 -33 12 -5 -7 -12 -10 -16 -7 -4 4 -18 -2 -32 -12 -13
-11 -30 -20 -36 -20 -6 0 -4 4 3 9 12 8 11 13 -10 30 -13 11 -30 18 -37 16 -6
-2 -12 2 -12 10 0 18 12 19 27 4 8 -8 17 -7 34 5 29 20 55 21 62 2z m172 -24
c-3 -3 -11 0 -18 7 -9 10 -8 11 6 5 10 -3 15 -9 12 -12z m0 -32 c-3 -5 1 -10
9 -10 9 0 16 5 16 10 0 6 4 10 9 10 5 0 9 -12 9 -26 0 -17 -5 -24 -14 -20 -8
3 -19 -4 -24 -15 -10 -18 -9 -19 9 -7 26 16 33 8 29 -38 l-3 -38 -29 31 c-16
18 -31 42 -33 54 -5 32 -9 34 -34 10 -27 -25 -30 -25 -55 -5 -10 8 -14 13 -7
10 16 -8 43 4 43 19 0 14 19 22 58 24 13 0 20 -3 17 -9z m-120 -60 c3 -5 1
-10 -4 -10 -6 0 -11 5 -11 10 0 6 2 10 4 10 3 0 8 -4 11 -10z m57 -12 c-7 -7
-12 -8 -12 -2 0 14 12 26 19 19 2 -3 -1 -11 -7 -17z m-85 -4 c-3 -3 -12 -4
-19 -1 -8 3 -5 6 6 6 11 1 17 -2 13 -5z m37 -45 c-5 -9 -34 -13 -34 -5 0 2 3
12 6 20 5 13 9 14 20 5 8 -6 11 -15 8 -20z m-94 11 c0 -5 -5 -10 -11 -10 -5 0
-7 5 -4 10 3 6 8 10 11 10 2 0 4 -4 4 -10z m199 -66 c26 -34 26 -44 1 -37 -16
4 -18 9 -10 19 9 10 5 13 -18 12 -20 -1 -29 -5 -25 -13 5 -16 -13 -29 -27 -20
-8 5 -7 11 1 21 9 10 9 14 0 14 -6 0 -16 -10 -21 -22 -10 -23 -10 -23 -7 2 2
25 36 50 69 50 9 0 26 -12 37 -26z m26 16 c3 -5 2 -10 -4 -10 -5 0 -13 5 -16
10 -3 6 -2 10 4 10 5 0 13 -4 16 -10z m-160 -39 c3 -9 0 -11 -10 -8 -8 4 -17
2 -20 -3 -3 -5 5 -12 16 -15 21 -7 21 -8 4 -18 -17 -9 -17 -10 -1 -23 18 -13
14 -34 -6 -34 -6 0 -8 3 -5 7 4 3 0 15 -10 25 -9 10 -13 18 -8 18 4 0 2 7 -5
15 -16 19 -31 20 -24 1 4 -10 -2 -12 -20 -9 -31 6 -33 17 -6 36 11 8 18 16 16
18 -2 2 13 4 35 4 23 0 41 -5 44 -14z m182 -28 c-3 -10 -5 -2 -5 17 0 19 2 27
5 18 2 -10 2 -26 0 -35z m-94 -25 c-5 -22 -5 -22 10 -4 14 19 15 19 33 1 19
-18 18 -18 -3 -13 -13 3 -26 2 -29 -3 -10 -18 -24 -9 -24 16 0 14 4 25 9 25 5
0 7 -10 4 -22z m-208 -38 c-3 -5 -10 -10 -16 -10 -5 0 -9 5 -9 10 0 6 7 10 16
10 8 0 12 -4 9 -10z m278 3 c-7 -2 -19 -2 -25 0 -7 3 -2 5 12 5 14 0 19 -2 13
-5z m-97 -53 c17 0 25 -28 11 -34 -7 -2 -5 -5 5 -5 9 -1 20 -10 23 -21 3 -11
12 -20 20 -20 14 0 31 -37 22 -47 -10 -10 -26 8 -20 22 3 10 -1 15 -12 15 -20
0 -96 60 -89 71 2 4 -3 12 -12 17 -14 8 -14 12 -3 30 l14 22 15 -25 c8 -14 20
-25 26 -25z m-99 34 c-3 -3 -12 -4 -19 -1 -8 3 -5 6 6 6 11 1 17 -2 13 -5z
m219 -24 c0 -11 -4 -20 -8 -20 -4 0 -8 9 -8 20 0 11 4 20 8 20 4 0 8 -9 8 -20z
m-207 -6 c1 -1 0 -7 -4 -13 -9 -15 -55 -14 -56 2 0 10 -2 10 -6 0 -7 -20 -22
-15 -20 6 1 16 7 18 42 13 22 -2 42 -6 44 -8z m151 8 c0 -4 -10 -9 -22 -9 -18
-2 -20 0 -8 7 18 12 30 13 30 2z m-10 -32 c0 -5 -2 -10 -4 -10 -3 0 -8 5 -11
10 -3 6 -1 10 4 10 6 0 11 -4 11 -10z m59 -9 c10 -1 12 -12 6 -47 -4 -26 -2
-50 4 -57 5 -7 6 -19 2 -26 -6 -10 -11 -4 -17 20 -4 19 -7 37 -6 41 1 4 -7 23
-17 42 -18 31 -18 34 -3 31 9 -2 23 -4 31 -4z m-289 -21 c-6 -11 -13 -20 -15
-20 -2 0 -3 9 -2 20 1 11 7 20 14 20 11 0 11 -5 3 -20z m75 -28 c-3 -3 -11 0
-18 7 -9 10 -8 11 6 5 10 -3 15 -9 12 -12z m38 -71 c-2 -6 3 -11 10 -11 7 0 5
-5 -5 -11 -9 -5 -15 -16 -12 -24 6 -16 45 -16 56 0 4 5 8 -2 8 -17 0 -37 -23
-36 -61 1 -28 28 -37 60 -22 75 10 9 28 1 26 -13z m130 3 c21 -8 23 -56 3 -74
-8 -6 -12 -19 -10 -28 4 -10 -5 -5 -20 11 -25 28 -32 59 -20 92 4 9 12 13 18
10 6 -3 19 -8 29 -11z m-223 -79 c-7 -8 -17 -12 -22 -9 -6 4 -5 10 3 15 22 14
33 10 19 -6z m99 -138 c8 -10 7 -17 -1 -25 -8 -8 -8 -15 0 -25 9 -10 8 -14 -3
-14 -7 0 -13 4 -12 8 1 4 -2 7 -8 7 -5 0 -9 -4 -8 -9 2 -5 -2 -9 -8 -9 -21 0
2 -19 24 -19 58 -1 72 -3 55 -8 -10 -2 -18 -9 -18 -14 0 -5 -7 -9 -15 -9 -8 0
-15 5 -15 11 0 6 -9 8 -20 4 -11 -3 -20 -2 -20 3 0 5 -16 8 -35 7 -25 -2 -35
1 -35 12 0 8 4 11 10 8 25 -15 50 -13 50 3 0 10 14 26 31 36 23 14 28 21 19
30 -8 8 -13 7 -20 -4 -5 -8 -12 -11 -17 -7 -4 5 -1 12 7 17 20 13 26 12 39 -3z
m181 -11 c0 -3 -4 -8 -10 -11 -5 -3 -10 -1 -10 4 0 6 5 11 10 11 6 0 10 -2 10
-4z m-254 -42 c-5 -14 -9 -15 -19 -5 -9 9 -9 14 3 21 18 11 24 6 16 -16z m244
-35 c0 -6 -4 -7 -10 -4 -5 3 -10 11 -10 16 0 6 5 7 10 4 6 -3 10 -11 10 -16z
m-304 -6 c17 -23 17 -30 -1 -30 -8 0 -12 4 -9 9 3 5 0 15 -6 23 -7 8 -9 15 -5
15 4 0 14 -8 21 -17z m249 7 c-3 -5 -16 -10 -28 -9 -20 1 -20 2 3 9 14 4 26 8
28 9 2 1 0 -3 -3 -9z m-105 -83 c0 -5 -7 -1 -16 7 -17 18 -39 22 -29 6 4 -6 3
-10 -2 -9 -18 3 -33 -2 -33 -11 0 -5 9 -10 20 -10 11 0 20 -5 20 -11 0 -6 -9
-8 -20 -4 -11 3 -20 2 -20 -3 0 -5 -7 -9 -15 -9 -8 0 -15 4 -15 9 0 4 7 8 16
8 13 0 14 3 5 14 -10 11 -8 16 9 21 11 3 18 10 15 15 -3 5 3 10 12 12 18 3 53
-20 53 -35z m-80 25 c0 -17 -41 -33 -58 -22 -14 9 -12 10 8 4 22 -6 23 -5 11
10 -12 14 -10 16 13 16 14 0 26 -3 26 -8z m230 -12 c0 -5 -4 -10 -9 -10 -6 0
-13 5 -16 10 -3 6 1 10 9 10 9 0 16 -4 16 -10z m-100 -16 c0 -8 -19 -13 -24
-6 -3 5 1 9 9 9 8 0 15 -2 15 -3z m-172 -57 c8 -10 6 -13 -11 -14 -12 0 -16 1
-9 4 6 3 10 9 6 14 -8 14 2 11 14 -4z m81 -1 c17 -20 3 -43 -26 -43 -14 0 -21
2 -16 6 5 3 13 15 16 25 7 17 6 17 -10 5 -16 -13 -17 -12 -4 4 16 21 25 21 40
3z m-109 -72 c0 5 7 3 15 -4 10 -9 15 -9 15 -1 0 6 10 11 22 11 18 0 20 -2 9
-12 -24 -25 -81 -13 -81 17 0 6 5 3 10 -5 5 -8 10 -11 10 -6z m237 -8 c4 -3
-1 -6 -10 -6 -9 0 -18 -4 -21 -9 -3 -5 11 -8 32 -7 79 5 76 4 61 23 -12 14
-12 16 1 11 18 -6 26 -78 10 -88 -6 -4 -29 -4 -51 0 -22 4 -39 3 -39 -2 0 -5
-6 -6 -12 -2 -7 5 -28 7 -47 5 -30 -2 -33 0 -29 17 4 15 2 19 -8 15 -8 -3 -12
-9 -9 -13 6 -10 -31 -24 -43 -16 -5 3 -21 -2 -37 -10 -29 -15 -50 -10 -25 6 8
6 10 10 5 10 -6 0 -16 9 -22 19 -11 18 -10 19 20 10 45 -13 57 -11 51 6 -5 11
1 13 29 8 22 -3 37 -1 42 7 5 9 4 11 -3 6 -7 -4 -12 -1 -12 6 0 10 -2 10 -9
-1 -5 -7 -14 -10 -20 -7 -25 16 2 24 69 21 39 -1 74 -5 77 -9z m38 4 c3 -5 2
-10 -4 -10 -5 0 -13 5 -16 10 -3 6 -2 10 4 10 5 0 13 -4 16 -10z m43 -133 c3
-13 -4 -17 -30 -17 -32 1 -32 1 -10 13 12 7 19 17 15 21 -4 5 -1 7 7 4 8 -3
16 -12 18 -21z m-104 2 c-2 -4 1 -9 7 -11 7 -2 10 -9 8 -15 -2 -5 -14 -1 -27
11 -21 20 -21 22 -3 22 11 0 18 -3 15 -7z m-64 -9 c20 -12 9 -21 -34 -25 l-36
-3 23 19 c26 21 27 22 47 9z m-30 -50 c0 -5 -7 -10 -15 -10 -8 0 -15 5 -15 10
0 6 7 10 15 10 8 0 15 -4 15 -10z m40 -6 c0 -8 -5 -12 -10 -9 -6 4 -8 11 -5
16 9 14 15 11 15 -7z m45 7 c3 -5 1 -12 -5 -16 -5 -3 -10 1 -10 9 0 18 6 21
15 7z m265 -131 c0 -5 -4 -10 -9 -10 -6 0 -13 5 -16 10 -3 6 1 10 9 10 9 0 16
-4 16 -10z m85 0 c-3 -5 6 -12 20 -16 14 -4 23 -11 20 -18 -3 -6 -8 -19 -11
-28 -9 -27 -22 -22 -17 6 4 20 -2 29 -28 45 l-34 21 28 0 c16 0 26 -4 22 -10z
m160 -17 c13 -15 25 -19 34 -14 7 5 11 13 7 19 -4 6 2 8 14 5 10 -3 22 -13 25
-23 3 -10 12 -21 20 -24 12 -4 12 0 -2 22 -10 15 -22 30 -28 34 -5 4 2 8 17 8
15 0 36 -10 48 -22 11 -12 23 -18 27 -13 5 4 2 10 -4 12 -15 5 -17 23 -3 23 5
0 12 -11 16 -25 3 -14 10 -25 16 -25 5 0 6 -5 2 -11 -3 -6 -9 -7 -13 -3 -3 5
-22 15 -41 22 l-35 12 30 -27 c17 -14 22 -23 13 -20 -22 8 -35 -11 -14 -19 31
-12 5 -23 -52 -22 -31 1 -47 3 -34 5 12 3 22 9 22 15 0 5 -7 8 -15 4 -8 -3
-14 -2 -14 2 3 20 -3 23 -18 11 -15 -12 -16 -12 -10 3 5 13 0 19 -18 24 -13 3
-29 3 -36 -2 -7 -4 -10 -3 -6 2 3 6 2 16 -4 24 -7 12 -9 12 -9 1 0 -11 -3 -11
-15 -1 -24 20 -18 26 23 26 25 -1 43 -8 57 -23z m230 17 c3 -5 2 -10 -4 -10
-5 0 -13 5 -16 10 -3 6 -2 10 4 10 5 0 13 -4 16 -10z m78 2 c-7 -4 -16 -19
-22 -32 -9 -24 -9 -24 -9 8 1 26 5 32 22 32 14 0 17 -3 9 -8z m107 -7 c0 -8
-4 -15 -10 -15 -5 0 -10 7 -10 15 0 8 5 15 10 15 6 0 10 -7 10 -15z m40 5 c0
-5 -3 -10 -7 -10 -5 0 -8 -12 -9 -28 l-1 -27 10 28 c6 15 14 27 19 27 4 0 5
-7 2 -15 -4 -9 0 -15 10 -15 17 0 11 29 -8 42 -6 4 1 8 17 8 26 0 27 -1 27
-60 l0 -60 -50 0 c-27 0 -50 5 -50 10 0 6 -7 10 -15 10 -8 0 -15 7 -15 16 0 9
5 12 12 8 7 -4 2 6 -10 23 -24 33 -31 60 -8 30 18 -24 60 -32 52 -11 -3 9 -4
20 0 25 7 12 24 11 24 -1z m-91 -37 c9 -6 13 -15 9 -18 -10 -11 -38 21 -37 42
0 14 2 15 6 3 4 -8 13 -20 22 -27z m-570 6 c-18 -11 -39 -11 -39 0 0 5 12 9
26 9 18 0 22 -3 13 -9z m475 -23 c16 -27 16 -28 0 -15 -15 12 -17 12 -12 -1 2
-8 15 -21 29 -27 22 -12 21 -13 -22 -13 -33 0 -49 5 -53 15 -3 9 0 15 10 15 8
0 13 -4 10 -8 -3 -5 1 -9 9 -9 10 0 12 4 5 12 -6 7 -7 21 -3 31 6 17 5 18 -13
4 -10 -8 -15 -10 -11 -5 4 5 -3 15 -15 22 -22 12 -21 12 13 10 29 -2 40 -8 53
-31z m-332 2 c5 -14 38 -20 38 -7 0 6 5 7 11 3 15 -9 -9 -24 -39 -24 -13 0
-20 -4 -17 -10 3 -5 2 -10 -4 -10 -5 0 -18 -3 -28 -6 -14 -4 -15 -4 -4 4 11 8
10 11 -3 19 -16 9 -16 11 -1 23 13 11 15 10 9 -4 -7 -18 20 -23 31 -6 3 6 1
10 -4 10 -6 0 -11 5 -11 10 0 14 17 13 22 -2z m-127 -18 c-3 -5 -12 -10 -18
-10 -7 0 -6 4 3 10 19 12 23 12 15 0z m543 -10 c7 -11 9 -20 4 -20 -4 0 -13 9
-20 20 -7 11 -9 20 -4 20 4 0 13 -9 20 -20z m-352 -8 c13 -9 27 -60 19 -72 -3
-5 -15 0 -27 12 -14 14 -18 23 -10 26 7 2 12 11 12 20 0 12 -5 11 -22 -7 l-21
-24 24 -19 c24 -19 24 -19 2 -13 -14 4 -23 2 -23 -4 0 -6 14 -11 30 -11 17 0
30 -5 30 -11 0 -5 -4 -7 -10 -4 -5 3 -10 1 -10 -6 0 -9 -3 -9 -14 0 -11 10
-17 8 -26 -6 -11 -17 -11 -17 -6 0 3 10 1 27 -5 39 -6 11 -7 27 -3 36 4 9 6
22 5 29 -1 10 10 16 39 22 3 0 10 -3 16 -7z m190 -7 c17 -16 14 -18 -10 -9 -9
3 -16 10 -16 15 0 13 9 11 26 -6z m-837 -6 c32 -11 37 -29 11 -37 -7 -3 -10 0
-6 7 4 6 1 11 -8 11 -9 0 -16 5 -16 12 0 9 -3 9 -12 0 -17 -17 -31 -15 -16 3
7 8 13 14 14 15 1 0 15 -5 33 -11z m231 -10 c0 -6 -4 -7 -10 -4 -5 3 -10 11
-10 16 0 6 5 7 10 4 6 -3 10 -11 10 -16z m194 6 c3 -8 1 -15 -4 -15 -6 0 -10
7 -10 15 0 8 2 15 4 15 2 0 6 -7 10 -15z m90 -38 c-3 -9 -10 -17 -16 -17 -5 0
-6 -5 -3 -10 4 -6 12 -7 18 -4 8 5 8 3 0 -7 -20 -21 -38 3 -23 31 6 12 9 29 5
38 -6 15 -5 16 10 1 9 -9 13 -23 9 -32z m-54 8 c0 -8 -2 -15 -4 -15 -2 0 -6 7
-10 15 -3 8 -1 15 4 15 6 0 10 -7 10 -15z m-230 -5 c0 -5 -5 -10 -11 -10 -5 0
-7 5 -4 10 3 6 8 10 11 10 2 0 4 -4 4 -10z m484 2 c7 -12 -22 -45 -33 -37 -6
3 -9 11 -5 16 3 5 10 7 15 4 5 -4 9 -2 9 4 0 5 -6 12 -12 14 -8 3 -7 6 4 6 9
1 19 -2 22 -7z m78 -37 c13 -17 9 -45 -6 -45 -11 0 -46 65 -46 87 0 7 40 -26
52 -42z m115 31 c-1 -6 -6 -14 -11 -18 -6 -4 -4 -14 5 -24 9 -11 9 -15 2 -10
-8 4 -13 2 -13 -7 0 -8 7 -17 15 -21 8 -3 15 -11 15 -17 0 -7 -10 -3 -22 9
-17 15 -23 31 -21 59 2 45 0 40 17 40 8 0 14 -5 13 -11z m210 8 c-3 -3 -12 -4
-19 -1 -8 3 -5 6 6 6 11 1 17 -2 13 -5z m41 -44 c2 -40 0 -50 -13 -50 -12 0
-15 10 -14 50 3 65 23 65 27 0z m312 40 c10 -7 11 -10 2 -10 -7 0 -17 -11 -24
-25 -9 -19 -8 -29 5 -49 19 -29 50 -30 75 -3 16 19 16 19 -15 12 -31 -6 -33
-5 -33 19 0 26 23 36 35 16 10 -16 28 -12 21 5 -3 8 -1 15 4 15 6 0 10 -7 10
-15 0 -8 7 -15 15 -15 8 0 15 -9 15 -20 0 -11 -4 -20 -10 -20 -17 0 -11 -18 8
-22 9 -2 -74 -4 -186 -5 -186 -1 -202 0 -198 15 8 29 10 87 3 98 -9 15 251 18
273 4z m53 3 c-7 -2 -19 -2 -25 0 -7 3 -2 5 12 5 14 0 19 -2 13 -5z m52 -3
c-3 -5 -13 -10 -21 -10 -8 0 -12 5 -9 10 3 6 13 10 21 10 8 0 12 -4 9 -10z
m55 0 c0 -5 -4 -10 -10 -10 -5 0 -10 5 -10 10 0 6 5 10 10 10 6 0 10 -4 10
-10z m306 -2 c4 -6 2 -8 -4 -5 -19 12 -40 -4 -44 -33 -3 -17 0 -26 5 -23 6 4
7 -5 3 -21 -4 -17 -3 -25 3 -22 5 4 12 2 16 -4 3 -5 0 -10 -7 -10 -20 1 -75
62 -60 67 6 3 12 13 12 24 0 10 -6 19 -12 20 -7 0 -52 2 -100 2 -47 1 -90 6
-94 10 -4 4 56 7 134 6 90 0 144 -4 148 -11z m-1937 -7 c9 -6 11 -14 4 -26
-10 -18 -15 -15 -26 18 -7 19 0 21 22 8z m1026 -21 c3 -5 1 -10 -4 -10 -6 0
-11 5 -11 10 0 6 2 10 4 10 3 0 8 -4 11 -10z m60 0 c3 -5 1 -10 -4 -10 -6 0
-11 5 -11 10 0 6 2 10 4 10 3 0 8 -4 11 -10z m693 -30 c-3 -36 -1 -40 19 -40
17 0 21 4 16 18 -5 16 -5 16 8 1 8 -9 23 -21 34 -27 15 -8 -15 -11 -120 -10
-77 1 -134 3 -127 5 7 3 12 23 13 46 0 23 3 37 5 30 3 -7 12 -9 20 -6 10 4 14
-2 14 -20 0 -32 23 -51 55 -43 22 6 31 22 26 50 -4 18 9 36 25 36 13 0 15 -8
12 -40z m182 31 c0 -6 -4 -13 -10 -16 -5 -3 -10 1 -10 9 0 9 5 16 10 16 6 0
10 -4 10 -9z m-230 -32 c0 -24 -20 -35 -31 -18 -16 26 -11 48 11 42 11 -3 20
-14 20 -24z m-1450 -4 c0 -9 -6 -12 -15 -9 -8 4 -12 10 -9 15 8 14 24 10 24
-6z m750 -7 c0 -6 -7 -7 -16 -4 -9 3 -18 6 -20 6 -3 0 -3 4 1 10 7 11 35 2 35
-12z m-800 8 c0 -2 3 -13 6 -23 5 -15 4 -16 -5 -3 -10 13 -12 13 -21 0 -7 -11
-4 -17 10 -22 11 -4 20 -13 20 -20 0 -9 -3 -9 -12 0 -8 8 -17 8 -30 1 -17 -9
-19 -8 -13 10 5 16 3 20 -9 15 -9 -3 -16 -12 -16 -18 0 -7 -6 -13 -12 -13 -7
0 -24 -3 -38 -7 l-25 -7 24 20 c13 12 29 21 37 21 8 0 14 5 14 11 0 6 9 9 20
6 13 -3 21 1 25 14 5 16 25 28 25 15z m1734 -17 c-6 -11 -24 -2 -24 11 0 5 7
7 15 4 8 -4 12 -10 9 -15z m-1908 -29 c5 0 10 -9 10 -20 0 -11 -4 -20 -8 -20
-4 0 -8 5 -8 10 0 6 -5 10 -11 10 -5 0 -7 -6 -3 -12 4 -7 3 -9 -1 -5 -5 4 -10
13 -11 20 -1 7 -6 21 -10 32 -7 19 -7 19 13 3 11 -10 24 -18 29 -18z m574 15
c-7 -9 -15 -13 -17 -11 -7 7 7 26 19 26 6 0 6 -6 -2 -15z m-620 -27 c0 -13 -9
-10 -33 13 l-22 21 28 -13 c15 -7 27 -16 27 -21z m86 20 c-5 8 1 12 21 12 l28
0 -25 -20 c-32 -25 -45 -25 -47 1 -2 18 0 19 14 7 12 -9 15 -10 9 0z m945 2
c5 0 9 -4 9 -8 0 -4 -16 -8 -35 -8 -35 0 -46 10 -22 19 6 3 18 4 25 1 8 -2 18
-4 23 -4z m-765 -27 c-10 -10 -19 5 -10 18 6 11 8 11 12 0 2 -7 1 -15 -2 -18z
m509 17 c3 -6 -1 -7 -9 -4 -18 7 -21 14 -7 14 6 0 13 -4 16 -10z m325 0 c0 -5
-5 -10 -11 -10 -5 0 -7 5 -4 10 3 6 8 10 11 10 2 0 4 -4 4 -10z m50 0 c0 -5
-7 -10 -15 -10 -8 0 -15 5 -15 10 0 6 7 10 15 10 8 0 15 -4 15 -10z m-560 -15
c11 -13 10 -14 -4 -9 -9 3 -16 10 -16 15 0 13 6 11 20 -6z m44 -1 c3 -8 2 -12
-4 -9 -6 3 -10 10 -10 16 0 14 7 11 14 -7z m-134 -4 c0 -5 -2 -10 -4 -10 -3 0
-8 5 -11 10 -3 6 -1 10 4 10 6 0 11 -4 11 -10z m-534 -18 c-5 -16 -1 -18 34
-16 22 1 42 -2 45 -6 7 -11 -35 -20 -65 -14 -50 11 -52 12 -33 33 23 25 26 25
19 3z m488 -7 c-8 -12 -11 -25 -7 -30 5 -4 2 -5 -5 -1 -8 5 -9 13 -2 25 5 10
7 20 5 23 -3 3 1 5 9 5 12 0 12 -3 0 -22z m291 5 c-3 -5 -13 -6 -21 -3 -9 3
-20 0 -24 -8 -5 -7 -12 -10 -17 -6 -4 5 -1 12 7 17 20 13 63 13 55 0z m145
-41 c0 -21 -17 -7 -27 24 l-12 32 19 -24 c11 -13 20 -27 20 -32z m24 36 c3 -8
3 -15 0 -15 -3 0 -12 7 -20 15 -13 13 -13 15 -1 15 8 0 17 -7 21 -15z m97 -1
c-17 -12 -21 -23 -17 -43 5 -24 4 -24 -9 4 -11 26 -11 30 1 33 8 2 14 8 14 13
0 5 8 9 17 9 14 0 13 -3 -6 -16z m-407 -10 c5 -12 2 -15 -10 -10 -10 4 -14 2
-11 -6 2 -7 14 -12 26 -11 25 3 28 -15 5 -24 -19 -7 -44 21 -44 49 0 22 26 24
34 2z m44 -4 c24 -23 27 -37 11 -60 -9 -13 -10 -13 -8 0 3 21 -12 53 -30 67
-9 7 -11 13 -5 13 5 0 20 -9 32 -20z m-537 -23 c-8 -8 -17 -5 -34 11 l-22 23
33 -12 c24 -8 30 -15 23 -22z m964 23 c3 -5 1 -10 -4 -10 -6 0 -11 5 -11 10 0
6 2 10 4 10 3 0 8 -4 11 -10z m-771 -15 c3 -9 0 -15 -10 -15 -8 0 -13 4 -10 9
12 19 -30 5 -47 -16 -10 -13 -29 -23 -43 -23 l-24 0 21 21 c16 16 23 18 29 9
6 -9 11 -7 19 9 14 24 56 29 65 6z m193 -14 c0 -11 -5 -18 -9 -15 -4 3 -5 11
-1 19 7 21 12 19 10 -4z m530 -3 c-3 -8 -6 -5 -6 6 -1 11 2 17 5 13 3 -3 4
-12 1 -19z m-97 -14 c0 -8 -4 -12 -10 -9 -5 3 -10 13 -10 21 0 8 5 12 10 9 6
-3 10 -13 10 -21z m-460 7 c0 -5 -9 -7 -20 -4 -11 3 -20 7 -20 9 0 2 9 4 20 4
11 0 20 -4 20 -9z m-330 -18 c0 -10 -4 -14 -8 -8 -4 6 -11 13 -16 18 -5 4 -2
7 7 7 10 0 17 -8 17 -17z m150 7 c0 -5 -6 -10 -14 -10 -8 0 -18 5 -21 10 -3 6
3 10 14 10 12 0 21 -4 21 -10z m680 -5 c10 -12 9 -15 -7 -15 -11 0 -20 7 -20
15 0 8 4 15 7 15 4 0 13 -7 20 -15z"/>
<path d="M820 2670 c0 -6 7 -10 15 -10 8 0 15 2 15 4 0 2 -7 6 -15 10 -8 3
-15 1 -15 -4z"/>
<path d="M860 2654 c0 -8 -4 -12 -10 -9 -5 3 -17 2 -26 -3 -11 -6 -4 -8 24 -8
35 1 39 3 31 19 -12 21 -19 22 -19 1z"/>
<path d="M623 2336 c-67 -21 -118 -69 -155 -144 -31 -63 -33 -73 -33 -177 0
-108 1 -111 42 -200 65 -140 78 -230 48 -333 -14 -47 -14 -56 1 -102 23 -69
14 -177 -19 -256 -14 -33 -37 -86 -51 -119 -20 -47 -26 -77 -26 -135 0 -186
78 -309 217 -341 68 -16 220 0 358 37 241 65 306 64 407 -8 13 -10 20 -9 35 4
72 63 158 66 357 14 338 -88 478 -70 563 73 60 101 72 252 27 356 -14 33 -37
86 -51 119 -33 78 -41 183 -20 257 15 49 15 60 2 103 -30 100 -17 192 48 331
41 89 42 92 42 200 0 105 -2 114 -33 178 -82 167 -215 192 -552 105 -221 -57
-309 -55 -382 9 -14 13 -23 10 -74 -19 -52 -29 -67 -32 -129 -31 -45 0 -111
12 -185 32 -201 56 -355 72 -437 47z m1364 -110 c28 -32 36 -36 80 -35 l48 1
-50 23 c-55 26 -75 41 -75 56 0 9 43 -12 107 -52 26 -17 41 -19 79 -13 46 7
47 7 22 20 -13 7 -39 12 -57 12 -18 -1 -40 6 -49 15 -15 16 -14 17 13 17 17 0
50 -10 75 -21 25 -12 68 -27 95 -34 36 -9 42 -13 23 -14 -18 -1 -43 -17 -74
-46 -42 -42 -74 -57 -74 -36 0 4 23 25 52 45 50 35 49 50 -2 21 -28 -16 -54
-20 -46 -6 3 4 -40 0 -97 -10 -115 -21 -171 -24 -162 -9 3 6 32 10 63 11 l57
1 -40 19 c-22 10 -61 19 -87 19 -27 0 -48 5 -48 10 0 20 31 22 81 6 57 -19 77
-16 29 4 -27 11 -50 36 -50 55 0 13 57 -26 87 -59z m153 -76 c-16 -30 -70 -54
-70 -31 0 9 59 51 73 51 4 0 3 -9 -3 -20z m60 -71 c0 -11 62 -10 -610 -10
-790 1 -941 3 -895 11 62 10 1505 10 1505 -1z m-1384 -66 c-4 -10 -4 -14 0
-11 3 4 20 -20 37 -53 17 -32 34 -59 39 -59 4 0 8 -4 8 -10 0 -5 -24 -10 -54
-10 -51 0 -53 1 -48 25 4 22 1 25 -24 25 -24 1 -26 2 -12 11 10 5 15 16 12 24
-4 8 -1 15 5 15 6 0 11 -4 11 -10 0 -5 4 -10 9 -10 7 0 8 14 2 38 -1 1 -10 -2
-20 -8 -26 -13 -36 3 -19 30 16 26 63 28 54 3z m192 -23 c-14 -17 -30 -28 -40
-26 -9 2 -19 -1 -22 -8 -2 -6 -5 -4 -5 4 -1 22 22 48 50 59 36 13 42 3 17 -29z
m95 30 c12 0 17 -8 17 -27 l0 -26 -23 21 c-13 12 -31 22 -40 22 -9 0 -17 5
-17 11 0 7 9 9 23 5 12 -3 30 -6 40 -6z m167 -67 c0 -69 1 -73 22 -73 14 0 18
-4 13 -9 -6 -6 -33 -6 -65 -2 -30 5 -47 9 -37 10 15 1 18 9 16 57 -2 39 2 59
12 66 12 8 12 9 -1 5 -8 -2 -21 2 -28 9 -11 12 -6 14 28 12 l40 -1 0 -74z m60
67 c0 -5 9 -10 20 -10 32 0 37 -30 10 -52 l-23 -19 28 -29 c15 -16 31 -29 34
-28 19 2 31 -3 31 -13 0 -8 -14 -10 -42 -6 -33 4 -51 15 -77 43 l-35 38 22 14
c27 18 28 38 2 45 -28 7 -25 27 5 27 14 0 25 -4 25 -10z m252 1 c-14 -8 -23
-129 -11 -137 20 -12 -2 -19 -52 -15 -40 2 -49 5 -35 13 13 7 17 22 15 66 -1
31 -6 62 -11 69 -7 8 6 11 47 11 31 0 52 -4 47 -7z m237 -61 c19 -38 38 -70
42 -70 5 0 9 -4 9 -10 0 -5 -25 -10 -55 -10 -54 0 -55 1 -49 25 5 22 3 25 -20
25 -14 0 -26 5 -26 10 0 6 7 10 15 10 9 0 12 6 8 16 -5 14 -3 15 14 6 15 -9
20 -8 20 3 0 10 -8 13 -24 11 -29 -6 -37 7 -21 34 25 40 51 25 87 -50z m210
16 l24 -48 23 43 c13 24 23 37 24 29 0 -24 -57 -125 -71 -125 -7 0 -17 14 -23
31 -6 17 -19 42 -28 55 -14 20 -17 21 -17 7 -2 -35 -21 -17 -21 18 0 28 -3 35
-15 30 -8 -3 -15 -1 -15 5 0 6 20 9 48 7 45 -3 48 -5 71 -52z m153 42 c-16
-16 -16 -135 1 -141 23 -8 2 -14 -33 -10 l-35 5 1 56 c2 107 0 102 41 102 29
0 34 -3 25 -12z m-1447 -88 c-9 -18 -15 -33 -13 -34 2 -2 12 -8 23 -14 17 -10
12 -11 -30 -11 -27 1 -43 3 -33 6 9 2 22 18 29 36 14 37 30 59 36 53 3 -2 -3
-18 -12 -36z m971 -1 c-21 -42 -20 -52 4 -44 11 4 20 2 20 -4 0 -6 -20 -11
-47 -11 -38 1 -44 3 -30 11 9 5 26 28 38 51 11 22 23 38 26 35 3 -3 -2 -20
-11 -38z m-711 -6 c3 -15 11 -31 17 -34 6 -4 9 -12 7 -18 -6 -17 -73 20 -77
42 -3 16 0 18 19 12 18 -6 21 -4 16 9 -4 9 -3 16 2 16 5 0 12 -12 16 -27z
m135 -12 c0 -35 -3 -37 -53 -46 -25 -5 -37 -4 -37 4 0 6 6 11 14 11 35 0 39
40 6 53 -8 3 4 6 28 6 40 1 42 0 42 -28z m851 -28 c34 -9 20 -18 -31 -20 -28
0 -50 3 -50 8 0 5 11 9 25 9 14 0 24 3 24 8 -1 4 0 16 1 27 2 17 3 17 7 -4 3
-13 13 -26 24 -28z m119 -13 c0 -5 -7 -10 -15 -10 -8 0 -15 5 -15 10 0 6 7 10
15 10 8 0 15 -4 15 -10z m0 -51 c0 -5 -305 -9 -720 -9 -396 0 -720 4 -720 8 0
5 324 9 720 9 416 0 720 -3 720 -8z m100 1 c0 -5 -18 -10 -40 -10 -22 0 -40 5
-40 10 0 6 18 10 40 10 22 0 40 -4 40 -10z m-1255 -250 c3 -5 1 -10 -4 -10 -6
0 -11 5 -11 10 0 6 2 10 4 10 3 0 8 -4 11 -10z m305 -46 c0 -32 -4 -53 -10
-49 -5 3 -7 12 -3 20 4 11 1 13 -11 9 -19 -7 -22 -34 -3 -35 10 0 10 -2 0 -6
-21 -8 -14 -25 7 -18 16 5 20 2 20 -14 0 -12 7 -21 15 -21 12 0 15 16 15 84
l0 85 199 1 c199 1 200 0 207 -22 6 -21 7 -22 14 -4 3 11 15 21 26 22 18 3 18
2 2 -10 -13 -10 -15 -15 -6 -24 9 -9 15 -5 24 16 l12 27 1 -37 c1 -26 6 -38
15 -38 8 0 17 -6 19 -12 3 -8 6 -6 6 5 1 9 7 17 15 17 8 0 13 9 12 24 0 13 -5
21 -11 18 -20 -12 -45 -12 -45 1 0 8 13 13 35 13 22 0 35 -5 35 -13 0 -8 7
-16 15 -19 8 -4 15 -10 15 -16 0 -5 -5 -6 -12 -2 -7 4 -8 3 -4 -4 5 -8 0 -12
-13 -12 -11 0 -23 -4 -26 -10 -3 -5 -1 -10 5 -10 6 0 9 -4 6 -8 -2 -4 5 -9 17
-10 25 -2 61 -9 65 -12 1 -2 7 -3 14 -4 6 0 13 -7 16 -15 3 -10 0 -12 -11 -8
-11 4 -15 0 -14 -14 1 -22 8 -24 26 -6 10 9 12 9 7 0 -7 -12 62 -63 85 -63 6
0 9 -8 7 -17 -4 -13 2 -18 19 -19 21 -2 23 2 21 37 -2 21 -6 39 -9 39 -14 0
-18 -14 -8 -34 10 -20 9 -20 -5 -3 -8 11 -12 26 -9 34 4 9 0 14 -8 13 -32 -5
-41 0 -36 20 3 11 0 23 -5 27 -7 4 -8 1 -3 -7 5 -8 3 -11 -6 -8 -8 3 -13 13
-13 22 1 11 -6 16 -22 16 -13 0 -24 5 -24 11 0 6 -9 8 -20 4 -19 -6 -25 6 -21
42 1 6 -8 14 -19 18 -11 3 -20 13 -20 21 0 16 36 19 45 4 3 -5 12 -10 18 -10
7 0 6 4 -3 10 -10 7 7 10 58 10 56 0 72 -3 72 -14 0 -8 4 -17 9 -20 5 -4 7 3
4 14 -4 16 0 20 21 20 l26 0 -2 -365 -2 -365 -45 -2 c-174 -5 -232 -3 -241 12
-8 13 -10 12 -10 -3 0 -14 -5 -16 -27 -11 -16 4 -34 12 -42 18 -11 8 -13 8 -7
-1 5 -9 0 -13 -13 -13 -12 0 -21 6 -22 13 0 9 -2 9 -6 0 -8 -21 -23 -15 -23
10 0 16 -3 18 -9 8 -7 -11 -10 -10 -18 3 -8 15 -11 14 -23 -9 -7 -14 -20 -25
-27 -25 -8 0 -12 4 -8 9 3 5 0 13 -6 17 -7 4 -9 3 -5 -4 10 -17 -26 -23 -156
-25 l-123 -1 -2 210 c-2 275 -4 314 -16 307 -6 -4 -8 0 -4 10 3 9 2 19 -3 22
-6 4 -10 -15 -10 -44 0 -28 -4 -51 -10 -51 -5 0 -9 3 -9 8 4 21 -2 42 -11 42
-5 0 -9 -3 -9 -7 3 -20 -2 -24 -16 -13 -9 7 -18 10 -22 7 -3 -4 6 -12 21 -18
14 -7 26 -19 26 -27 0 -11 -9 -7 -30 13 -31 30 -53 28 -29 -2 12 -17 11 -16
-7 0 -19 18 -19 18 0 33 11 8 26 14 33 14 19 0 16 10 -11 34 -13 11 -26 35
-30 51 l-7 30 21 -25 20 -25 0 30 c1 25 3 27 9 10 5 -11 6 -24 3 -29 -3 -5 -1
-7 4 -3 5 3 8 25 6 50 -3 36 -9 47 -29 56 -14 7 -23 14 -20 17 3 3 15 1 26 -6
17 -9 21 -8 21 4 0 10 6 13 15 9 9 -3 15 -2 14 3 -3 16 1 24 11 24 6 0 10 -25
10 -56z m-311 20 c12 -15 21 -22 21 -16 0 6 7 9 15 6 8 -4 15 -1 15 5 0 6 -5
11 -11 11 -5 0 -7 5 -4 10 9 14 45 12 46 -2 0 -10 2 -10 6 0 2 6 16 12 29 12
25 0 32 -14 12 -24 -7 -3 -3 -3 10 0 18 4 22 1 22 -16 0 -12 -4 -18 -10 -15
-14 9 -12 -8 3 -24 10 -12 8 -13 -8 -7 -11 4 -16 4 -12 0 4 -4 -1 -13 -11 -20
-14 -11 -15 -15 -3 -23 7 -5 10 -15 7 -22 -5 -9 -2 -8 6 1 12 14 20 16 56 12
6 -1 12 -10 12 -19 0 -9 7 -25 17 -35 22 -24 10 -34 -23 -19 -15 6 -29 9 -32
7 -3 -3 6 -10 19 -15 24 -10 24 -10 3 -16 -14 -5 -20 -13 -17 -24 3 -11 -4
-21 -21 -29 -21 -9 -24 -9 -19 3 3 8 13 15 22 16 12 0 12 2 -4 9 -11 5 -14 9
-7 9 6 1 12 6 12 12 0 5 -5 7 -11 3 -6 -3 -15 0 -20 7 -4 7 -12 10 -16 5 -4
-5 -2 -11 5 -13 6 -3 12 -14 12 -24 0 -13 -4 -18 -12 -13 -8 5 -9 2 -5 -9 4
-11 1 -17 -9 -17 -18 0 -14 -22 6 -28 7 -3 10 0 7 5 -3 5 0 10 8 10 9 0 14 -5
13 -12 -2 -6 9 -23 25 -38 29 -30 38 -26 11 4 -11 13 -14 27 -9 46 l6 27 21
-32 c11 -18 18 -35 15 -39 -4 -3 4 -14 16 -25 l22 -19 -24 11 c-18 10 -22 9
-16 -1 5 -6 7 -33 6 -59 -1 -45 0 -47 24 -42 14 2 26 9 26 16 1 6 2 18 3 26 1
8 -2 27 -6 43 -4 15 -2 27 3 27 5 0 9 5 9 11 0 6 -6 9 -14 6 -15 -6 -49 30
-41 43 8 13 35 13 35 0 0 -5 -8 -7 -17 -3 -15 5 -16 4 -5 -8 11 -12 16 -10 33
10 13 16 19 19 19 8 0 -8 6 -17 14 -20 10 -4 12 3 10 24 -2 16 1 29 6 29 7 0
10 -81 10 -220 l-1 -220 -45 0 c-24 0 -44 5 -44 10 0 6 7 10 15 10 11 0 14 7
11 25 -3 13 0 27 5 30 5 4 9 0 9 -8 0 -8 9 -17 20 -20 27 -7 25 9 -2 25 -31
17 -48 18 -48 5 0 -7 -5 -5 -10 3 -14 21 -12 30 5 30 12 0 13 4 6 19 -6 10 -7
21 -4 25 3 3 -5 6 -18 6 -21 1 -22 2 -6 11 17 10 16 13 -10 38 -39 39 -60 44
-80 21 -10 -11 -27 -20 -38 -20 -12 0 -16 -3 -9 -8 6 -4 13 -14 16 -22 5 -12
7 -11 14 5 10 26 34 50 34 35 0 -6 8 -9 18 -6 29 10 52 -23 37 -51 -6 -13 -14
-20 -17 -17 -3 3 -9 1 -12 -4 -3 -5 2 -9 12 -9 39 0 45 -3 34 -16 -7 -8 -7
-18 -2 -27 5 -8 4 -22 -2 -34 -10 -19 -10 -20 7 -6 16 13 18 13 13 0 -3 -8
-15 -14 -27 -13 -11 2 -21 -2 -21 -8 0 -8 -5 -7 -16 2 -14 11 -15 10 -12 -7 2
-15 -3 -19 -27 -20 -18 0 -33 6 -37 15 -6 14 -7 13 -7 -1 -1 -10 -6 -18 -12
-18 -6 0 -9 6 -6 14 7 16 -25 16 -35 0 -4 -6 -29 -11 -55 -11 -27 0 -36 2 -20
4 20 3 27 9 23 19 -3 8 -1 14 4 14 6 0 10 8 10 19 0 12 -9 20 -25 23 -13 3
-22 1 -19 -3 3 -5 12 -9 21 -9 13 0 13 -3 3 -15 -11 -13 -14 -13 -26 2 -14 19
-19 73 -7 73 4 0 17 -10 30 -22 33 -31 28 -7 -6 30 -27 28 -28 31 -10 35 20 5
37 -9 18 -15 -7 -2 -5 -9 5 -17 14 -12 16 -9 16 27 0 47 -8 74 -21 67 -4 -3
-5 -13 -2 -22 5 -12 2 -12 -15 3 -22 18 -31 41 -12 29 6 -3 13 1 16 9 3 9 10
13 15 10 8 -5 13 9 10 29 0 4 2 6 6 6 19 -3 33 2 33 12 0 6 -6 9 -14 6 -8 -3
-17 1 -20 10 -10 26 1 27 36 2 32 -22 32 -22 14 -1 -10 12 -27 24 -37 27 -11
4 -19 14 -19 23 1 16 2 15 11 0 5 -10 19 -18 30 -18 15 0 18 5 13 24 -6 24 10
44 21 26 3 -5 1 -10 -4 -10 -21 0 -11 -17 17 -29 22 -10 25 -10 15 0 -7 7 -13
23 -13 35 0 13 -5 26 -11 30 -8 5 -8 9 1 14 15 9 6 26 -19 39 -13 8 -18 6 -18
-5 0 -8 6 -13 14 -10 11 4 11 1 3 -14 -8 -14 -8 -20 0 -20 6 0 8 -5 5 -11 -4
-6 -9 -8 -12 -5 -3 3 -14 1 -25 -5 -15 -8 -23 -7 -34 8 -12 16 -15 16 -24 3
-8 -12 -10 -11 -10 8 0 20 3 21 20 12 18 -9 20 -8 18 17 -2 39 -8 46 -24 32
-11 -9 -14 -7 -12 14 2 21 5 24 21 16 15 -9 18 -7 15 8 -2 10 2 17 10 16 6 -2
12 6 12 18 0 11 -4 17 -10 14 -5 -3 -7 0 -4 9 3 8 13 12 22 10 15 -5 15 -4 -1
9 -17 14 -16 15 3 20 15 4 19 1 17 -14 -2 -10 -6 -22 -10 -25 -13 -13 -7 -34
9 -34 8 0 13 4 10 9 -11 17 5 43 19 31 6 -5 16 -6 20 -2 5 4 5 1 1 -5 -4 -7
-2 -13 3 -13 6 0 11 -7 11 -15 0 -8 5 -15 12 -15 6 0 9 3 6 6 -4 3 -2 19 2 35
6 20 5 29 -3 30 -7 0 -7 3 2 6 11 4 11 7 0 13 -10 7 -10 11 1 24 7 9 10 20 6
23 -14 14 -37 10 -50 -9 -8 -11 -19 -17 -24 -14 -6 3 -18 -1 -26 -10 -14 -14
-19 -14 -34 -2 -24 19 -32 30 -32 51 0 26 36 21 59 -9z m193 14 c-7 -7 -16 -7
-28 0 -14 8 -13 10 10 10 18 0 24 -4 18 -10z m658 -28 c0 -5 -5 -10 -11 -10
-5 0 -7 5 -4 10 3 6 8 10 11 10 2 0 4 -4 4 -10z m-620 -25 c0 -2 -9 -3 -19 -2
-11 0 -18 5 -15 9 4 6 34 0 34 -7z m17 -17 c-3 -8 -6 -5 -6 6 -1 11 2 17 5 13
3 -3 4 -12 1 -19z m688 13 c3 -5 1 -12 -5 -16 -5 -3 -10 1 -10 9 0 18 6 21 15
7z m-971 -17 c3 -8 2 -12 -4 -9 -6 3 -10 10 -10 16 0 14 7 11 14 -7z m105 0
c4 3 8 -1 8 -9 0 -8 -4 -15 -9 -15 -4 0 -8 4 -8 10 0 5 -7 7 -15 4 -8 -4 -15
-2 -15 4 0 13 24 22 28 10 2 -4 7 -6 11 -4z m122 -1 c13 -16 12 -17 -3 -4 -10
7 -18 15 -18 17 0 8 8 3 21 -13z m719 7 c0 -5 -2 -10 -4 -10 -3 0 -8 5 -11 10
-3 6 -1 10 4 10 6 0 11 -4 11 -10z m-730 -32 c0 -4 -7 -8 -15 -8 -8 0 -15 4
-15 8 0 5 7 9 15 9 8 0 15 -4 15 -9z m-40 -8 c0 -5 -2 -10 -4 -10 -3 0 -8 5
-11 10 -3 6 -1 10 4 10 6 0 11 -4 11 -10z m905 -58 c-3 -3 -11 0 -18 7 -9 10
-8 11 6 5 10 -3 15 -9 12 -12z m-1085 -173 c0 -5 -7 -9 -15 -9 -15 0 -20 12
-9 23 8 8 24 -1 24 -14z m-3 -75 c0 -6 -9 -17 -20 -24 -17 -10 -19 -10 -13 5
3 9 6 25 6 36 0 16 3 17 13 7 8 -7 14 -17 14 -24z m283 -10 c0 -8 -4 -12 -10
-9 -5 3 -10 10 -10 16 0 5 5 9 10 9 6 0 10 -7 10 -16z m946 -175 c1 -35 1 -37
-3 -9 -3 19 -10 41 -16 49 -10 11 -9 13 3 9 10 -3 15 -19 16 -49z m1 -101 c-3
-7 -5 -2 -5 12 0 14 2 19 5 13 2 -7 2 -19 0 -25z m-982 2 c3 -6 -4 -10 -17
-10 -18 0 -20 2 -8 10 19 12 18 12 25 0z m-165 -75 c0 -8 -19 -24 -42 -36 -28
-14 -37 -23 -28 -29 8 -5 3 -11 -16 -18 -29 -10 -29 -10 11 -11 50 -1 85 -11
85 -22 0 -12 -42 -11 -74 1 -14 5 -47 12 -73 15 -27 3 -64 8 -83 11 l-35 5 50
-32 c38 -25 46 -34 32 -37 -11 -2 -31 7 -45 21 -31 29 -111 71 -120 63 -7 -7
-7 -7 46 -40 23 -14 42 -31 42 -36 0 -15 -28 -12 -42 5 -45 55 -74 75 -96 70
-15 -4 -21 -2 -17 5 3 5 21 10 38 10 18 0 59 14 91 30 59 30 96 38 96 20 0
-13 -37 -32 -58 -29 -23 3 -72 -11 -72 -21 0 -4 19 -10 43 -13 34 -5 50 -1 86
21 71 44 92 54 99 47 8 -8 -38 -44 -58 -45 -8 0 -26 -9 -40 -20 l-25 -20 42 0
c37 0 50 6 98 50 60 55 65 57 65 35z m70 -45 c0 -11 -4 -12 -74 -14 -47 -2
-48 -1 -20 11 35 15 94 17 94 3z"/>
<path d="M1925 1549 c-4 -6 -5 -12 -2 -15 2 -3 7 2 10 11 7 17 1 20 -8 4z"/>
<path d="M1400 1546 c0 -2 7 -6 15 -10 8 -3 15 -1 15 4 0 6 -7 10 -15 10 -8 0
-15 -2 -15 -4z"/>
<path d="M1950 1540 c0 -5 5 -10 11 -10 5 0 7 5 4 10 -3 6 -8 10 -11 10 -2 0
-4 -4 -4 -10z"/>
<path d="M1210 1530 c0 -5 5 -10 10 -10 6 0 10 5 10 10 0 6 -4 10 -10 10 -5 0
-10 -4 -10 -10z"/>
<path d="M1905 1510 c-3 -5 -1 -10 4 -10 6 0 11 5 11 10 0 6 -2 10 -4 10 -3 0
-8 -4 -11 -10z"/>
<path d="M1936 1495 c4 -8 11 -15 16 -15 6 0 5 6 -2 15 -7 8 -14 15 -16 15 -2
0 -1 -7 2 -15z"/>
<path d="M2007 1468 c13 -6 25 -19 28 -29 6 -18 35 -27 35 -11 0 9 -63 52 -76
51 -5 0 1 -5 13 -11z"/>
<path d="M1320 1456 c25 -15 45 -12 35 5 -4 5 -18 9 -33 9 l-27 -1 25 -13z"/>
<path d="M1390 1456 c0 -15 13 -21 35 -16 6 2 18 2 29 2 22 -1 16 7 -10 12
-11 3 -27 7 -36 11 -13 5 -18 2 -18 -9z"/>
<path d="M1730 1453 c0 -4 5 -15 10 -23 8 -13 10 -13 10 2 0 9 -4 20 -10 23
-5 3 -10 3 -10 -2z"/>
<path d="M1222 1428 c-14 -14 -16 -42 -3 -34 7 5 23 46 17 46 -1 0 -7 -5 -14
-12z"/>
<path d="M1790 1430 c0 -5 5 -10 10 -10 6 0 10 -6 10 -13 0 -8 7 -14 15 -14
13 0 13 2 0 17 -8 9 -12 20 -8 23 3 4 -1 7 -10 7 -9 0 -17 -4 -17 -10z"/>
<path d="M1865 1430 c27 -12 35 -12 35 0 0 6 -12 10 -27 9 -25 0 -26 -1 -8 -9z"/>
<path d="M1545 1420 c3 -5 11 -10 16 -10 6 0 7 5 4 10 -3 6 -11 10 -16 10 -6
0 -7 -4 -4 -10z"/>
<path d="M1590 1405 c7 -9 15 -13 17 -11 7 7 -7 26 -19 26 -6 0 -6 -6 2 -15z"/>
<path d="M1620 1397 c0 -8 10 -13 23 -13 12 1 21 -4 20 -11 -3 -12 22 -18 53
-14 7 1 14 -8 17 -20 4 -15 11 -20 22 -15 9 3 18 0 21 -8 8 -21 31 -27 38 -10
3 9 1 12 -4 9 -6 -3 -10 1 -10 9 0 8 -10 18 -22 22 -13 3 -31 14 -42 23 -10 9
-19 15 -20 13 -1 -4 -27 4 -64 19 -30 12 -32 11 -32 -4z"/>
<path d="M1443 1370 c-1 -11 2 -18 8 -15 11 7 12 35 1 35 -4 0 -8 -9 -9 -20z"/>
<path d="M1350 1360 c-9 -6 -10 -10 -3 -10 6 0 15 5 18 10 8 12 4 12 -15 0z"/>
<path d="M1411 1354 c0 -11 3 -14 6 -6 3 7 2 16 -1 19 -3 4 -6 -2 -5 -13z"/>
<path d="M1890 1366 c0 -2 7 -9 15 -16 9 -7 15 -8 15 -2 0 5 -7 12 -15 16 -8
3 -15 4 -15 2z"/>
<path d="M1439 1331 c9 -6 10 -10 2 -14 -8 -4 -8 -5 1 -3 20 4 21 26 1 26 -14
0 -15 -2 -4 -9z"/>
<path d="M1686 1315 c4 -8 11 -15 16 -15 6 0 5 6 -2 15 -7 8 -14 15 -16 15 -2
0 -1 -7 2 -15z"/>
<path d="M1916 1317 c3 -10 9 -15 12 -12 3 3 0 11 -7 18 -10 9 -11 8 -5 -6z"/>
<path d="M1371 1303 c7 -12 15 -20 18 -17 3 2 -3 12 -13 22 -17 16 -18 16 -5
-5z"/>
<path d="M1655 1310 c3 -5 -3 -10 -14 -10 -29 0 -27 -15 2 -16 16 -1 23 4 24
17 1 11 -3 19 -8 19 -6 0 -7 -4 -4 -10z"/>
<path d="M1825 1300 c-7 -11 46 -60 77 -72 10 -4 18 -14 18 -23 0 -8 4 -14 8
-13 10 3 102 -79 102 -91 0 -17 38 -52 45 -41 9 15 -23 61 -46 67 -10 3 -19
11 -19 18 0 6 -16 26 -35 44 -19 17 -35 37 -35 43 0 6 -3 9 -6 5 -3 -3 -22 9
-41 26 -45 41 -60 50 -68 37z"/>
<path d="M1341 1285 c-1 -24 14 -50 22 -38 3 4 -1 19 -9 33 -12 22 -13 23 -13
5z"/>
<path d="M1430 1275 c-18 -46 -22 -74 -14 -86 5 -9 9 -7 14 7 4 10 2 22 -4 26
-8 6 -7 8 2 8 6 0 12 7 12 15 0 8 5 15 10 15 6 0 10 9 10 20 0 28 -19 25 -30
-5z"/>
<path d="M2029 1291 c7 -5 10 -14 7 -20 -4 -6 -2 -11 3 -11 6 0 11 9 11 20 0
12 -7 20 -17 20 -14 0 -15 -2 -4 -9z"/>
<path d="M1700 1275 c0 -9 9 -19 21 -23 11 -5 20 -11 21 -15 0 -16 23 -67 31
-67 4 0 5 5 1 12 -5 8 -2 9 10 5 13 -5 11 1 -7 26 -14 17 -23 37 -20 43 2 6
-4 17 -14 25 -16 13 -17 12 -4 -4 20 -26 6 -32 -18 -8 -16 16 -21 18 -21 6z"/>
<path d="M1320 1254 c0 -8 5 -12 10 -9 6 4 8 11 5 16 -9 14 -15 11 -15 -7z"/>
<path d="M1640 1268 c0 -2 7 -24 14 -50 8 -25 12 -48 9 -51 -9 -9 6 -42 25
-54 20 -12 20 -12 23 45 1 15 5 35 10 44 6 10 5 19 -1 23 -13 8 -23 -19 -23
-62 0 -18 -4 -33 -9 -33 -5 0 -7 26 -6 58 1 40 -1 56 -10 55 -16 -4 -16 14 1
20 6 3 2 6 -10 6 -13 1 -23 0 -23 -1z"/>
<path d="M1488 1253 c7 -3 16 -2 19 1 4 3 -2 6 -13 5 -11 0 -14 -3 -6 -6z"/>
<path d="M1617 1234 c7 -3 9 -13 6 -22 -4 -14 -3 -14 5 -2 12 16 7 30 -11 29
-9 0 -9 -2 0 -5z"/>
<path d="M1350 1220 c0 -5 5 -10 10 -10 6 0 10 5 10 10 0 6 -4 10 -10 10 -5 0
-10 -4 -10 -10z"/>
<path d="M1780 1226 c0 -2 7 -9 15 -16 13 -11 14 -10 9 4 -5 14 -24 23 -24 12z"/>
<path d="M1357 1193 c-11 -11 -8 -23 6 -23 8 0 14 7 14 15 0 16 -9 19 -20 8z"/>
<path d="M1860 1186 c0 -11 30 -39 36 -34 2 3 -5 13 -16 23 -11 10 -20 15 -20
11z"/>
<path d="M1620 1162 c0 -11 4 -23 8 -26 10 -6 9 30 -1 40 -4 4 -7 -2 -7 -14z"/>
<path d="M1738 1119 c3 -19 7 -26 12 -19 8 14 2 50 -9 50 -4 0 -5 -14 -3 -31z"/>
<path d="M1354 1129 c-3 -5 9 -9 26 -9 17 0 29 -4 26 -8 -3 -5 1 -9 9 -9 21 0
28 27 7 28 -9 1 -27 3 -40 4 -12 1 -25 -2 -28 -6z"/>
<path d="M1455 1130 c3 -5 10 -10 16 -10 5 0 9 5 9 10 0 6 -7 10 -16 10 -8 0
-12 -4 -9 -10z"/>
<path d="M1875 1110 c-3 -5 -1 -10 4 -10 6 0 11 5 11 10 0 6 -2 10 -4 10 -3 0
-8 -4 -11 -10z"/>
<path d="M1620 1102 c0 -5 7 -15 15 -22 8 -7 15 -9 15 -6 0 4 -7 14 -15 22 -8
9 -15 11 -15 6z"/>
<path d="M1810 1089 c0 -5 -5 -7 -12 -3 -7 4 -8 3 -4 -4 4 -6 13 -9 21 -6 8 4
12 10 9 15 -7 12 -14 11 -14 -2z"/>
<path d="M1356 1082 c-3 -5 1 -9 9 -9 8 0 15 4 15 9 0 4 -4 8 -9 8 -6 0 -12
-4 -15 -8z"/>
<path d="M1403 1076 c-16 -19 -4 -29 13 -11 8 7 14 16 14 19 0 10 -15 6 -27
-8z"/>
<path d="M1710 1080 c0 -5 -6 -10 -14 -10 -17 0 -29 -27 -19 -43 4 -7 10 -30
14 -52 l6 -40 2 47 c1 29 -4 48 -11 51 -10 4 -10 7 -1 17 10 11 14 10 19 -3 3
-9 10 -17 15 -17 6 0 5 9 -1 20 -9 16 -8 20 5 20 9 0 13 -4 10 -10 -3 -5 -1
-10 4 -10 18 0 12 19 -9 30 -14 7 -20 7 -20 0z"/>
<path d="M1875 1055 c2 -49 10 -52 12 -5 1 22 -1 40 -5 40 -4 0 -7 -16 -7 -35z"/>
<path d="M1945 1080 c3 -5 8 -10 11 -10 2 0 4 5 4 10 0 6 -5 10 -11 10 -5 0
-7 -4 -4 -10z"/>
<path d="M1900 1056 c0 -2 7 -7 16 -10 8 -3 12 -2 9 4 -6 10 -25 14 -25 6z"/>
<path d="M1763 1036 c3 -7 1 -18 -4 -23 -6 -6 -5 -10 4 -10 7 0 14 11 15 24 1
13 -3 23 -9 23 -6 0 -9 -6 -6 -14z"/>
<path d="M1710 1003 c0 -12 5 -25 10 -28 13 -8 13 15 0 35 -8 12 -10 11 -10
-7z"/>
<path d="M1800 1008 c0 -6 6 -8 14 -5 8 3 17 2 20 -4 2 -5 3 -4 2 2 -3 15 -36
21 -36 7z"/>
<path d="M1927 1004 c3 -7 9 -14 14 -14 14 0 10 17 -5 23 -10 4 -13 1 -9 -9z"/>
<path d="M1620 1005 c0 -5 5 -17 10 -25 5 -8 10 -10 10 -5 0 6 -5 17 -10 25
-5 8 -10 11 -10 5z"/>
<path d="M1656 1000 c4 -8 9 -22 9 -30 1 -8 2 -25 3 -38 1 -13 6 -20 12 -17 5
3 20 -3 32 -14 12 -12 27 -21 34 -21 7 0 15 -6 18 -12 4 -10 2 15 -3 41 -1 2
-8 -2 -16 -9 -18 -15 -20 1 -3 18 13 13 4 16 -39 12 -16 -1 -23 4 -25 17 0 10
-2 23 -2 30 -1 7 -7 18 -15 25 -12 11 -12 10 -5 -2z"/>
<path d="M1870 986 c0 -9 5 -16 10 -16 6 0 10 4 10 9 0 6 -4 13 -10 16 -5 3
-10 -1 -10 -9z"/>
<path d="M1790 960 c-8 -5 -11 -12 -8 -16 4 -3 14 1 23 10 18 17 9 21 -15 6z"/>
<path d="M1880 949 c0 -5 5 -7 10 -4 6 3 10 8 10 11 0 2 -4 4 -10 4 -5 0 -10
-5 -10 -11z"/>
<path d="M1366 935 c4 -8 8 -15 10 -15 2 0 4 7 4 15 0 8 -4 15 -10 15 -5 0 -7
-7 -4 -15z"/>
<path d="M1636 935 c4 -8 8 -15 10 -15 2 0 4 7 4 15 0 8 -4 15 -10 15 -5 0 -7
-7 -4 -15z"/>
<path d="M1330 925 c0 -8 7 -15 15 -15 8 0 15 -5 15 -12 0 -6 3 -8 7 -5 3 4
-3 16 -15 27 -18 17 -22 18 -22 5z"/>
<path d="M1405 930 c3 -5 8 -10 11 -10 2 0 4 5 4 10 0 6 -5 10 -11 10 -5 0 -7
-4 -4 -10z"/>
<path d="M1823 915 c0 -8 4 -12 9 -9 4 3 8 9 8 15 0 5 -4 9 -8 9 -5 0 -9 -7
-9 -15z"/>
<path d="M1390 911 c0 -5 5 -13 10 -16 6 -3 10 -2 10 4 0 5 -4 13 -10 16 -5 3
-10 2 -10 -4z"/>
<path d="M1782 885 c0 -16 2 -22 5 -12 2 9 2 23 0 30 -3 6 -5 -1 -5 -18z"/>
<path d="M1340 881 c0 -6 4 -13 10 -16 6 -3 7 1 4 9 -7 18 -14 21 -14 7z"/>
<path d="M1396 872 c-3 -5 1 -9 9 -9 8 0 12 4 9 9 -3 4 -7 8 -9 8 -2 0 -6 -4
-9 -8z"/>
<path d="M897 1540 c3 -11 13 -20 22 -19 10 0 11 2 4 6 -7 2 -13 11 -13 19 0
8 -4 14 -9 14 -5 0 -7 -9 -4 -20z"/>
<path d="M970 1430 c0 -5 5 -10 11 -10 5 0 7 5 4 10 -3 6 -8 10 -11 10 -2 0
-4 -4 -4 -10z"/>
<path d="M970 1400 c0 -5 5 -10 10 -10 6 0 10 5 10 10 0 6 -4 10 -10 10 -5 0
-10 -4 -10 -10z"/>
<path d="M917 1384 c6 -15 23 -19 23 -5 0 5 -7 11 -14 14 -10 4 -13 1 -9 -9z"/>
<path d="M1120 1391 c0 -5 5 -13 10 -16 6 -3 10 -2 10 4 0 5 -4 13 -10 16 -5
3 -10 2 -10 -4z"/>
<path d="M917 1294 c-11 -11 3 -24 18 -18 8 4 12 10 9 15 -6 11 -18 12 -27 3z"/>
<path d="M1066 1191 c-4 -7 -5 -15 -2 -18 9 -9 19 4 14 18 -4 11 -6 11 -12 0z"/>
<path d="M1025 1180 c3 -5 8 -10 11 -10 2 0 4 5 4 10 0 6 -5 10 -11 10 -5 0
-7 -4 -4 -10z"/>
<path d="M986 1152 c-3 -5 1 -9 9 -9 8 0 12 4 9 9 -3 4 -7 8 -9 8 -2 0 -6 -4
-9 -8z"/>
<path d="M1115 1141 c5 -17 3 -20 -12 -15 -14 5 -15 4 -3 -4 8 -6 18 -8 22 -6
12 7 10 32 -3 40 -8 4 -9 0 -4 -15z"/>
<path d="M946 1117 c3 -10 9 -15 12 -12 3 3 0 11 -7 18 -10 9 -11 8 -5 -6z"/>
<path d="M1210 1116 c0 -8 7 -17 16 -20 13 -5 14 -4 6 7 -7 8 -9 17 -5 20 3 4
1 7 -5 7 -7 0 -12 -6 -12 -14z"/>
<path d="M925 1091 c-3 -5 -2 -12 3 -15 5 -3 9 1 9 9 0 17 -3 19 -12 6z"/>
<path d="M976 1063 c3 -6 -22 -33 -30 -33 -3 0 -3 7 0 15 4 8 1 15 -5 15 -16
0 -13 -30 4 -36 18 -7 52 24 38 35 -5 5 -9 6 -7 4z"/>
<path d="M1180 989 c0 -5 5 -7 10 -4 6 3 10 8 10 11 0 2 -4 4 -10 4 -5 0 -10
-5 -10 -11z"/>
<path d="M1205 970 c3 -5 8 -10 11 -10 2 0 4 5 4 10 0 6 -5 10 -11 10 -5 0 -7
-4 -4 -10z"/>
<path d="M945 960 c-3 -6 1 -7 9 -4 18 7 21 14 7 14 -6 0 -13 -4 -16 -10z"/>
<path d="M976 931 c4 -15 2 -21 -4 -17 -6 3 -13 2 -16 -3 -3 -5 1 -12 10 -15
22 -8 21 -9 26 19 3 13 2 22 -3 20 -4 -3 -10 1 -13 7 -3 7 -3 2 0 -11z"/>
<path d="M1029 948 c-1 -5 -2 -11 -3 -15 -1 -5 -5 -13 -9 -20 -4 -6 -3 -14 3
-18 5 -3 10 0 10 9 0 8 4 16 10 18 6 2 6 8 0 18 -5 8 -10 12 -11 8z"/>
<path d="M1098 923 c6 -2 10 -9 7 -14 -4 -5 1 -6 10 -2 13 5 14 7 3 14 -7 5
-17 8 -23 8 -5 0 -4 -3 3 -6z"/>
<path d="M1047 879 c3 -10 11 -19 19 -19 16 0 8 26 -11 33 -9 4 -11 -1 -8 -14z"/>
<path d="M1207 883 c-10 -9 -9 -23 1 -23 5 0 9 7 9 15 0 17 -1 18 -10 8z"/>
<path d="M290 2085 c-11 -13 -10 -14 4 -9 9 3 16 1 16 -5 0 -6 6 -8 14 -5 17
7 10 34 -9 34 -7 0 -18 -7 -25 -15z"/>
<path d="M90 1765 c0 -8 7 -15 16 -15 14 0 14 3 4 15 -7 8 -14 15 -16 15 -2 0
-4 -7 -4 -15z"/>
<path d="M315 1640 c3 -5 8 -10 11 -10 2 0 4 5 4 10 0 6 -5 10 -11 10 -5 0 -7
-4 -4 -10z"/>
<path d="M283 1208 c-2 -18 0 -20 7 -8 12 18 13 30 2 30 -4 0 -9 -10 -9 -22z"/>
<path d="M190 702 c0 -5 7 -9 15 -9 8 0 15 4 15 9 0 4 -7 8 -15 8 -8 0 -15 -4
-15 -8z"/>
<path d="M250 670 c0 -5 12 -10 28 -10 21 0 24 2 12 10 -20 13 -40 13 -40 0z"/>
<path d="M827 329 c7 -7 15 -10 18 -7 3 3 -2 9 -12 12 -14 6 -15 5 -6 -5z"/>
<path d="M1161 344 c0 -11 3 -14 6 -6 3 7 2 16 -1 19 -3 4 -6 -2 -5 -13z"/>
<path d="M1182 318 c6 -16 58 -24 58 -8 0 6 -6 10 -12 7 -7 -2 -21 0 -32 5
-14 8 -17 7 -14 -4z"/>
<path d="M875 210 c3 -5 8 -10 11 -10 2 0 4 5 4 10 0 6 -5 10 -11 10 -5 0 -7
-4 -4 -10z"/>
<path d="M1327 254 c-13 -13 -7 -36 7 -31 18 7 29 -32 14 -50 -14 -18 -8 -22
22 -16 23 4 25 9 23 46 -2 23 0 36 3 30 8 -18 24 -16 24 2 0 10 -10 15 -29 15
-16 0 -36 2 -43 5 -8 3 -17 2 -21 -1z"/>
<path d="M1435 208 l0 -48 41 0 c28 0 44 5 48 15 3 8 1 15 -4 15 -6 0 -9 15
-8 33 3 31 2 32 -37 32 l-40 0 0 -47z m69 23 c3 -5 -1 -11 -9 -15 -9 -3 -15 0
-15 9 0 16 16 20 24 6z m6 -52 c0 -5 -7 -9 -15 -9 -8 0 -15 7 -15 15 0 9 6 12
15 9 8 -4 15 -10 15 -15z"/>
<path d="M1097 2837 c3 -4 8 -6 11 -3 3 3 10 2 16 -3 7 -6 16 -4 23 4 9 10 5
12 -22 12 -18 -1 -31 -5 -28 -10z"/>
<path d="M1350 2840 c8 -5 20 -10 25 -10 6 0 3 5 -5 10 -8 5 -19 10 -25 10 -5
0 -3 -5 5 -10z"/>
<path d="M1449 2837 c15 -19 51 -23 51 -6 0 8 5 8 15 -1 9 -7 15 -8 15 -2 0
16 -33 24 -41 10 -7 -11 -13 -10 -31 1 -21 13 -22 13 -9 -2z"/>
<path d="M1240 2815 c0 -14 5 -25 10 -25 6 0 10 11 10 25 0 14 -4 25 -10 25
-5 0 -10 -11 -10 -25z"/>
<path d="M1583 2833 c-17 -6 -17 -23 0 -23 8 0 14 7 14 15 0 8 -1 15 -1 14 -1
0 -7 -3 -13 -6z"/>
<path d="M1630 2835 c0 -7 30 -13 34 -7 3 4 -4 9 -15 9 -10 1 -19 0 -19 -2z"/>
<path d="M74 2812 c-5 -4 1 -17 13 -29 l23 -22 0 23 c0 24 -20 39 -36 28z"/>
<path d="M445 2810 c-3 -5 -1 -10 4 -10 6 0 11 5 11 10 0 6 -2 10 -4 10 -3 0
-8 -4 -11 -10z"/>
<path d="M1606 2804 c-3 -9 -11 -12 -18 -8 -9 4 -8 2 1 -7 10 -11 15 -11 18
-1 3 6 10 9 16 5 7 -4 19 -8 27 -8 10 0 14 -9 13 -27 -2 -31 11 -38 21 -12 8
21 -21 55 -43 52 -9 -2 -15 3 -13 10 3 18 -15 15 -22 -4z"/>
<path d="M1956 2803 c4 -12 12 -28 20 -34 8 -6 14 -17 14 -25 0 -7 9 -12 19
-11 11 0 17 5 15 9 -3 5 -10 5 -16 2 -7 -4 -8 -2 -4 4 4 7 -6 26 -23 44 -26
28 -29 29 -25 11z"/>
<path d="M1507 2804 c7 -3 9 -13 6 -22 -4 -15 -3 -15 6 -2 15 22 14 30 -6 29
-10 0 -13 -3 -6 -5z"/>
<path d="M1545 2800 c3 -5 8 -10 11 -10 2 0 4 5 4 10 0 6 -5 10 -11 10 -5 0
-7 -4 -4 -10z"/>
<path d="M327 2773 c-3 -5 8 -8 23 -8 15 0 26 3 23 8 -2 4 -13 7 -23 7 -10 0
-21 -3 -23 -7z"/>
<path d="M75 2760 c3 -5 8 -10 11 -10 2 0 4 5 4 10 0 6 -5 10 -11 10 -5 0 -7
-4 -4 -10z"/>
<path d="M1635 2760 c4 -6 11 -8 16 -5 14 9 11 15 -7 15 -8 0 -12 -5 -9 -10z"/>
<path d="M1780 2760 c0 -5 5 -10 10 -10 6 0 10 5 10 10 0 6 -4 10 -10 10 -5 0
-10 -4 -10 -10z"/>
<path d="M1733 2736 c-1 -12 1 -16 4 -9 2 7 11 9 19 6 8 -3 14 -1 14 5 0 5 -8
12 -18 14 -13 4 -18 -1 -19 -16z"/>
<path d="M317 2739 c7 -7 15 -10 18 -7 3 3 -2 9 -12 12 -14 6 -15 5 -6 -5z"/>
<path d="M1340 2735 c0 -9 7 -18 16 -22 13 -5 13 -8 2 -15 -9 -7 -8 -8 5 -4
14 5 17 2 12 -13 -5 -16 0 -19 35 -23 22 -2 40 0 40 4 0 5 -9 8 -19 8 -11 0
-22 6 -24 13 -4 8 -6 7 -6 -3 -1 -15 -25 18 -37 53 -8 21 -24 23 -24 2z"/>
<path d="M1430 2739 c0 -3 9 -9 19 -12 13 -3 18 0 15 7 -5 13 -34 18 -34 5z"/>
<path d="M1700 2740 c0 -5 5 -10 11 -10 5 0 7 5 4 10 -3 6 -8 10 -11 10 -2 0
-4 -4 -4 -10z"/>
<path d="M2786 2741 c-8 -12 10 -51 23 -51 5 0 11 6 14 14 7 18 -28 52 -37 37z"/>
<path d="M196 2725 c4 -8 8 -15 10 -15 2 0 4 7 4 15 0 8 -4 15 -10 15 -5 0 -7
-7 -4 -15z"/>
<path d="M1216 2725 c-3 -8 -1 -15 4 -15 6 0 10 7 10 15 0 8 -2 15 -4 15 -2 0
-6 -7 -10 -15z"/>
<path d="M1936 2717 c-3 -12 -1 -23 4 -25 6 -2 10 -10 10 -17 0 -8 3 -16 8
-18 4 -3 7 12 7 34 0 43 -20 60 -29 26z"/>
<path d="M2260 2720 c6 -11 15 -20 20 -20 6 0 10 9 10 20 0 13 -7 20 -20 20
-18 0 -19 -3 -10 -20z"/>
<path d="M105 2720 c-3 -5 -2 -10 4 -10 5 0 13 5 16 10 3 6 2 10 -4 10 -5 0
-13 -4 -16 -10z"/>
<path d="M365 2720 c-3 -5 -1 -10 4 -10 6 0 11 5 11 10 0 6 -2 10 -4 10 -3 0
-8 -4 -11 -10z"/>
<path d="M1770 2719 c-12 -9 -12 -10 3 -5 10 3 28 1 40 -5 21 -10 21 -10 3 5
-23 19 -26 19 -46 5z"/>
<path d="M1415 2710 c3 -5 8 -10 11 -10 2 0 4 5 4 10 0 6 -5 10 -11 10 -5 0
-7 -4 -4 -10z"/>
<path d="M1477 2705 c-4 -8 -2 -17 3 -20 6 -4 10 3 10 14 0 25 -6 27 -13 6z"/>
<path d="M1516 2711 c-3 -5 1 -14 9 -21 10 -9 15 -9 15 -1 0 6 -5 11 -11 11
-5 0 -7 5 -4 10 3 6 4 10 1 10 -3 0 -7 -4 -10 -9z"/>
<path d="M1897 2713 c-4 -3 -7 -15 -7 -25 0 -10 -4 -18 -9 -18 -5 0 -11 -6
-14 -14 -5 -12 0 -12 26 -5 18 5 32 9 33 9 0 0 -1 14 -4 30 -4 29 -12 37 -25
23z"/>
<path d="M1308 2682 c-3 -19 0 -29 9 -29 8 0 11 9 6 26 -8 36 -10 36 -15 3z"/>
<path d="M1270 2691 c0 -6 4 -13 10 -16 6 -3 7 1 4 9 -7 18 -14 21 -14 7z"/>
<path d="M2214 2687 c-9 -24 -1 -29 33 -25 25 4 26 5 8 13 -11 5 -23 13 -27
19 -4 6 -10 4 -14 -7z"/>
<path d="M123 2668 c13 -21 14 -26 3 -22 -8 3 -17 1 -21 -5 -4 -7 6 -10 29 -9
20 2 36 3 36 3 0 0 -15 14 -32 30 l-33 30 18 -27z"/>
<path d="M270 2679 c0 -5 5 -7 11 -3 8 4 9 0 4 -15 -4 -13 -2 -21 5 -21 6 0 8
5 5 10 -3 6 -1 10 5 10 6 0 13 -6 16 -14 3 -8 12 -12 20 -9 9 3 3 12 -22 29
-39 27 -44 28 -44 13z"/>
<path d="M1616 2677 c3 -10 9 -15 12 -12 3 3 0 11 -7 18 -10 9 -11 8 -5 -6z"/>
<path d="M1460 2667 c0 -7 8 -20 18 -28 15 -13 20 -13 30 -3 7 8 20 10 30 7
15 -6 15 -5 3 11 -11 13 -16 14 -23 4 -5 -9 -10 -10 -15 -2 -13 17 -43 25 -43
11z"/>
<path d="M5 2639 c-4 -6 -5 -12 -2 -15 2 -3 7 2 10 11 7 17 1 20 -8 4z"/>
<path d="M1570 2643 c0 -6 6 -13 13 -15 16 -7 37 1 37 14 0 7 -4 7 -13 -1 -10
-8 -17 -7 -25 1 -8 8 -12 9 -12 1z"/>
<path d="M25 2630 c-3 -5 -1 -10 4 -10 6 0 11 5 11 10 0 6 -2 10 -4 10 -3 0
-8 -4 -11 -10z"/>
<path d="M1438 2633 c7 -3 16 -2 19 1 4 3 -2 6 -13 5 -11 0 -14 -3 -6 -6z"/>
<path d="M1630 2626 c0 -8 4 -17 9 -20 5 -4 7 3 4 14 -6 23 -13 26 -13 6z"/>
<path d="M670 2610 c0 -5 5 -10 11 -10 5 0 7 5 4 10 -3 6 -8 10 -11 10 -2 0
-4 -4 -4 -10z"/>
<path d="M1340 2610 c0 -5 5 -10 11 -10 5 0 7 5 4 10 -3 6 -8 10 -11 10 -2 0
-4 -4 -4 -10z"/>
<path d="M1383 2607 c0 -8 6 -14 14 -14 9 0 10 4 2 14 -6 7 -12 13 -14 13 -1
0 -2 -6 -2 -13z"/>
<path d="M1686 2611 c5 -11 3 -13 -9 -8 -10 3 -17 3 -17 -1 0 -4 14 -13 32
-20 24 -9 35 -9 43 0 7 8 6 9 -3 4 -7 -5 -21 2 -33 16 -11 13 -17 17 -13 9z"/>
<path d="M1950 2609 c0 -5 5 -7 10 -4 6 3 10 8 10 11 0 2 -4 4 -10 4 -5 0 -10
-5 -10 -11z"/>
<path d="M1498 2602 c-17 -7 -17 -8 2 -19 14 -9 21 -10 26 -1 5 7 3 8 -6 3
-10 -6 -12 -4 -7 8 3 10 5 17 4 16 -1 0 -10 -4 -19 -7z"/>
<path d="M1538 2603 c7 -3 16 -2 19 1 4 3 -2 6 -13 5 -11 0 -14 -3 -6 -6z"/>
<path d="M1600 2590 c8 -5 22 -9 30 -9 10 0 8 3 -5 9 -27 12 -43 12 -25 0z"/>
<path d="M1340 2576 c0 -7 9 -16 21 -19 20 -5 20 -5 3 14 -20 23 -24 23 -24 5z"/>
<path d="M1650 2560 c-12 -8 -10 -9 7 -7 12 2 26 6 29 10 11 11 -19 8 -36 -3z"/>
<path d="M1788 2542 c18 -10 29 -22 25 -27 -4 -4 0 -5 10 -2 10 4 22 7 25 7 4
0 -13 9 -37 20 -53 25 -68 25 -23 2z"/>
<path d="M1855 2550 c3 -5 8 -10 11 -10 2 0 4 5 4 10 0 6 -5 10 -11 10 -5 0
-7 -4 -4 -10z"/>
<path d="M1965 2550 c3 -5 8 -10 11 -10 2 0 4 5 4 10 0 6 -5 10 -11 10 -5 0
-7 -4 -4 -10z"/>
<path d="M1687 2524 c2 -7 11 -10 19 -7 19 7 18 10 -5 16 -13 3 -18 1 -14 -9z"/>
<path d="M1740 2529 c0 -8 10 -15 21 -16 24 -2 52 -23 30 -23 -7 0 -9 -5 -5
-11 4 -8 9 -7 14 2 11 18 1 39 -19 39 -9 0 -22 5 -29 12 -9 9 -12 9 -12 -3z"/>
<path d="M2008 2533 c7 -3 16 -2 19 1 4 3 -2 6 -13 5 -11 0 -14 -3 -6 -6z"/>
<path d="M1388 2523 c7 -3 16 -2 19 1 4 3 -2 6 -13 5 -11 0 -14 -3 -6 -6z"/>
<path d="M1848 2503 c7 -3 16 -2 19 1 4 3 -2 6 -13 5 -11 0 -14 -3 -6 -6z"/>
<path d="M2050 2490 c0 -5 5 -10 11 -10 5 0 7 5 4 10 -3 6 -8 10 -11 10 -2 0
-4 -4 -4 -10z"/>
<path d="M1448 2483 c7 -3 16 -2 19 1 4 3 -2 6 -13 5 -11 0 -14 -3 -6 -6z"/>
<path d="M1486 2482 c-2 -4 4 -8 15 -8 10 0 19 4 19 8 0 4 -6 8 -14 8 -8 0
-17 -4 -20 -8z"/>
<path d="M1391 2464 c0 -11 3 -14 6 -6 3 7 2 16 -1 19 -3 4 -6 -2 -5 -13z"/>
<path d="M0 1945 c0 -18 5 -25 20 -25 26 0 46 36 24 44 -31 12 -44 6 -44 -19z"/>
<path d="M13 1903 c-15 -6 -17 -33 -3 -33 5 0 14 9 20 20 11 20 6 23 -17 13z"/>
<path d="M2760 1672 c0 -6 18 -21 39 -32 22 -10 41 -25 44 -32 3 -8 6 -6 6 5
1 10 -10 22 -26 28 -16 6 -36 18 -45 26 -11 10 -18 12 -18 5z"/>
<path d="M58 1243 c7 -3 16 -2 19 1 4 3 -2 6 -13 5 -11 0 -14 -3 -6 -6z"/>
<path d="M0 1088 c0 -29 19 -58 26 -41 3 7 12 9 20 6 22 -8 17 17 -8 38 -28
25 -38 24 -38 -3z"/>
<path d="M32 471 c-22 -6 -22 -6 -3 -18 16 -10 20 -9 25 4 8 20 6 21 -22 14z"/>
<path d="M300 390 c-8 -5 -12 -12 -9 -15 4 -3 12 1 19 10 14 17 11 19 -10 5z"/>
<path d="M1717 393 c-4 -3 -7 -12 -7 -18 0 -13 46 -12 58 0 4 4 0 6 -8 5 -27
-4 -41 0 -35 10 7 11 2 13 -8 3z"/>
<path d="M1550 379 c0 -5 5 -7 10 -4 6 3 10 8 10 11 0 2 -4 4 -10 4 -5 0 -10
-5 -10 -11z"/>
<path d="M85 350 c3 -5 8 -10 11 -10 2 0 4 5 4 10 0 6 -5 10 -11 10 -5 0 -7
-4 -4 -10z"/>
<path d="M0 310 c0 -19 3 -21 12 -12 9 9 9 15 0 24 -9 9 -12 7 -12 -12z"/>
<path d="M1555 100 c3 -5 8 -10 11 -10 2 0 4 5 4 10 0 6 -5 10 -11 10 -5 0 -7
-4 -4 -10z"/>
<path d="M1605 90 c2 -27 15 -38 15 -12 0 11 -4 23 -8 26 -5 3 -8 -4 -7 -14z"/>
<path d="M1638 60 c-1 -28 0 -50 5 -50 4 0 7 23 7 50 0 65 -7 65 -12 0z"/>
<path d="M1710 94 c0 -8 5 -12 10 -9 6 4 8 11 5 16 -9 14 -15 11 -15 -7z"/>
<path d="M1960 77 c0 -5 9 -20 20 -34 11 -14 20 -21 20 -15 0 12 -39 60 -40
49z"/>
<path d="M1505 60 c3 -5 8 -10 11 -10 2 0 4 5 4 10 0 6 -5 10 -11 10 -5 0 -7
-4 -4 -10z"/>
<path d="M1767 59 c7 -7 15 -10 18 -7 3 3 -2 9 -12 12 -14 6 -15 5 -6 -5z"/>
<path d="M842 40 c2 -8 13 -16 26 -18 12 -2 20 -7 18 -11 -3 -4 6 -7 19 -7 29
0 37 16 21 38 -16 22 -88 20 -84 -2z m68 -17 c0 -12 -2 -12 -15 1 -8 8 -15 17
-15 20 0 3 7 3 15 0 8 -4 15 -13 15 -21z"/>
<path d="M1573 53 c4 -6 2 -13 -5 -15 -7 -3 -3 -7 9 -10 15 -4 24 0 28 10 3 9
3 13 -1 9 -4 -4 -14 -1 -22 6 -11 8 -14 8 -9 0z"/>
<path d="M830 15 c7 -8 17 -15 22 -15 6 0 5 7 -2 15 -7 8 -17 15 -22 15 -6 0
-5 -7 2 -15z"/>
<path d="M1873 17 c0 -8 6 -14 14 -14 9 0 10 4 2 14 -6 7 -12 13 -14 13 -1 0
-2 -6 -2 -13z"/>
<path d="M520 10 c-11 -7 -7 -10 18 -10 20 0 31 4 27 10 -8 13 -26 13 -45 0z"/>
<path d="M1180 10 c0 -5 5 -10 10 -10 6 0 10 5 10 10 0 6 -4 10 -10 10 -5 0
-10 -4 -10 -10z"/>
<path d="M1465 10 c3 -5 8 -10 11 -10 2 0 4 5 4 10 0 6 -5 10 -11 10 -5 0 -7
-4 -4 -10z"/>
</g>
</svg>
